<svg xmlns="http://www.w3.org/2000/svg" xmlns:xlink="http://www.w3.org/1999/xlink" contentStyleType="text/css" data-diagram-type="DESCRIPTION" height="475px" preserveAspectRatio="none" style="width:798px;height:475px;background:#FFFFFF;" version="1.1" viewBox="0 0 798 475" width="798px" zoomAndPan="magnify"><defs/><g><!--cluster Presentation Layer--><g class="cluster" data-entity="Presentation Layer" data-source-line="1" data-uid="ent0002" id="cluster_Presentation Layer"><path d="M270.5,6 L421.9385,6 A3.75,3.75 0 0 1 424.4385,8.5 L431.4385,28.2969 L431.5,28.2969 A2.5,2.5 0 0 1 434,30.7969 L434,100.79 A2.5,2.5 0 0 1 431.5,103.29 L270.5,103.29 A2.5,2.5 0 0 1 268,100.79 L268,8.5 A2.5,2.5 0 0 1 270.5,6" fill="none" style="stroke:#000000;stroke-width:1.5;"/><line style="stroke:#000000;stroke-width:1.5;" x1="268" x2="431.4385" y1="28.2969" y2="28.2969"/><text fill="#000000" font-family="sans-serif" font-size="14" font-weight="bold" lengthAdjust="spacing" textLength="150.4385" x="272" y="20.9951">Presentation Layer</text></g><!--cluster Application / Service Layer--><g class="cluster" data-entity="Application . Service Layer" data-source-line="5" data-uid="ent0004" id="cluster_Application . Service Layer"><path d="M8.5,152.29 L220.6279,152.29 A3.75,3.75 0 0 1 223.1279,154.79 L230.1279,174.5869 L367.5,174.5869 A2.5,2.5 0 0 1 370,177.0869 L370,247.09 A2.5,2.5 0 0 1 367.5,249.59 L8.5,249.59 A2.5,2.5 0 0 1 6,247.09 L6,154.79 A2.5,2.5 0 0 1 8.5,152.29" fill="none" style="stroke:#000000;stroke-width:1.5;"/><line style="stroke:#000000;stroke-width:1.5;" x1="6" x2="230.1279" y1="174.5869" y2="174.5869"/><text fill="#000000" font-family="sans-serif" font-size="14" font-weight="bold" lengthAdjust="spacing" textLength="211.1279" x="10" y="167.2851">Application / Service Layer</text></g><!--cluster Domain Layer--><g class="cluster" data-entity="Domain Layer" data-source-line="10" data-uid="ent0007" id="cluster_Domain Layer"><path d="M306.5,298.59 L416.3076,298.59 A3.75,3.75 0 0 1 418.8076,301.09 L425.8076,320.8869 L425.5,320.8869 A2.5,2.5 0 0 1 428,323.3869 L428,393.39 A2.5,2.5 0 0 1 425.5,395.89 L306.5,395.89 A2.5,2.5 0 0 1 304,393.39 L304,301.09 A2.5,2.5 0 0 1 306.5,298.59" fill="none" style="stroke:#000000;stroke-width:1.5;"/><line style="stroke:#000000;stroke-width:1.5;" x1="304" x2="425.8076" y1="320.8869" y2="320.8869"/><text fill="#000000" font-family="sans-serif" font-size="14" font-weight="bold" lengthAdjust="spacing" textLength="108.8076" x="308" y="313.5851">Domain Layer</text></g><!--cluster Data Access Layer--><g class="cluster" data-entity="Data Access Layer" data-source-line="14" data-uid="ent0009" id="cluster_Data Access Layer"><path d="M599.5,152.29 L744.9434,152.29 A3.75,3.75 0 0 1 747.4434,154.79 L754.4434,174.5869 L788.5,174.5869 A2.5,2.5 0 0 1 791,177.0869 L791,247.09 A2.5,2.5 0 0 1 788.5,249.59 L599.5,249.59 A2.5,2.5 0 0 1 597,247.09 L597,154.79 A2.5,2.5 0 0 1 599.5,152.29" fill="none" style="stroke:#000000;stroke-width:1.5;"/><line style="stroke:#000000;stroke-width:1.5;" x1="597" x2="754.4434" y1="174.5869" y2="174.5869"/><text fill="#000000" font-family="sans-serif" font-size="14" font-weight="bold" lengthAdjust="spacing" textLength="144.4434" x="601" y="167.2851">Data Access Layer</text></g><!--entity UI--><g class="entity" data-entity="UI" data-source-line="2" data-uid="ent0003" id="entity_UI"><rect fill="#F1F1F1" height="46.2969" rx="2.5" ry="2.5" style="stroke:#181818;stroke-width:0.5;" width="87.7148" x="307.14" y="41"/><rect fill="#F1F1F1" height="10" style="stroke:#181818;stroke-width:0.5;" width="15" x="374.8548" y="46"/><rect fill="#F1F1F1" height="2" style="stroke:#181818;stroke-width:0.5;" width="4" x="372.8548" y="48"/><rect fill="#F1F1F1" height="2" style="stroke:#181818;stroke-width:0.5;" width="4" x="372.8548" y="52"/><text fill="#000000" font-family="sans-serif" font-size="14" lengthAdjust="spacing" textLength="47.7148" x="322.14" y="73.9951">MyApp</text></g><!--entity Service--><g class="entity" data-entity="Service" data-source-line="6" data-uid="ent0005" id="entity_Service"><rect fill="#F1F1F1" height="46.2969" rx="2.5" ry="2.5" style="stroke:#181818;stroke-width:0.5;" width="146.292" x="21.85" y="187.29"/><rect fill="#F1F1F1" height="10" style="stroke:#181818;stroke-width:0.5;" width="15" x="148.142" y="192.29"/><rect fill="#F1F1F1" height="2" style="stroke:#181818;stroke-width:0.5;" width="4" x="146.142" y="194.29"/><rect fill="#F1F1F1" height="2" style="stroke:#181818;stroke-width:0.5;" width="4" x="146.142" y="198.29"/><text fill="#000000" font-family="sans-serif" font-size="14" lengthAdjust="spacing" textLength="106.292" x="36.85" y="220.2851">PensionService</text></g><!--entity Validator--><g class="entity" data-entity="Validator" data-source-line="7" data-uid="ent0006" id="entity_Validator"><rect fill="#F1F1F1" height="46.2969" rx="2.5" ry="2.5" style="stroke:#181818;stroke-width:0.5;" width="150.7559" x="203.62" y="187.29"/><rect fill="#F1F1F1" height="10" style="stroke:#181818;stroke-width:0.5;" width="15" x="334.3759" y="192.29"/><rect fill="#F1F1F1" height="2" style="stroke:#181818;stroke-width:0.5;" width="4" x="332.3759" y="194.29"/><rect fill="#F1F1F1" height="2" style="stroke:#181818;stroke-width:0.5;" width="4" x="332.3759" y="198.29"/><text fill="#000000" font-family="sans-serif" font-size="14" lengthAdjust="spacing" textLength="110.7559" x="218.62" y="220.2851">PersonValidator</text></g><!--entity Model--><g class="entity" data-entity="Model" data-source-line="11" data-uid="ent0008" id="entity_Model"><rect fill="#F1F1F1" height="46.2969" rx="2.5" ry="2.5" style="stroke:#181818;stroke-width:0.5;" width="87.5439" x="322.23" y="333.59"/><rect fill="#F1F1F1" height="10" style="stroke:#181818;stroke-width:0.5;" width="15" x="389.7739" y="338.59"/><rect fill="#F1F1F1" height="2" style="stroke:#181818;stroke-width:0.5;" width="4" x="387.7739" y="340.59"/><rect fill="#F1F1F1" height="2" style="stroke:#181818;stroke-width:0.5;" width="4" x="387.7739" y="344.59"/><text fill="#000000" font-family="sans-serif" font-size="14" lengthAdjust="spacing" textLength="47.5439" x="337.23" y="366.5851">Person</text></g><!--entity DAL--><g class="entity" data-entity="DAL" data-source-line="15" data-uid="ent0010" id="entity_DAL"><rect fill="#F1F1F1" height="46.2969" rx="2.5" ry="2.5" style="stroke:#181818;stroke-width:0.5;" width="162.6162" x="612.69" y="187.29"/><rect fill="#F1F1F1" height="10" style="stroke:#181818;stroke-width:0.5;" width="15" x="755.3062" y="192.29"/><rect fill="#F1F1F1" height="2" style="stroke:#181818;stroke-width:0.5;" width="4" x="753.3062" y="194.29"/><rect fill="#F1F1F1" height="2" style="stroke:#181818;stroke-width:0.5;" width="4" x="753.3062" y="198.29"/><text fill="#000000" font-family="sans-serif" font-size="14" lengthAdjust="spacing" textLength="122.6162" x="627.69" y="220.2851">PersonRepository</text></g><g class="entity" data-entity="GMN18" data-source-line="29" data-uid="ent0019" id="entity_GMN18"><path d="M631.24,344.17 L631.24,369.3028 A0,0 0 0 0 631.24,369.3028 L756.7605,369.3028 A0,0 0 0 0 756.7605,369.3028 L756.7605,354.17 L746.7605,344.17 L698,344.17 L694,233.99 L690,344.17 L631.24,344.17 A0,0 0 0 0 631.24,344.17" fill="#FEFFDD" style="stroke:#181818;stroke-width:0.5;"/><path d="M746.7605,344.17 L746.7605,354.17 L756.7605,354.17 L746.7605,344.17" fill="#FEFFDD" style="stroke:#181818;stroke-width:0.5;"/><text fill="#000000" font-family="sans-serif" font-size="13" lengthAdjust="spacing" textLength="104.5205" x="637.24" y="361.2369">&#1056;&#1072;&#1073;&#1086;&#1090;&#1072;&#1077;&#1090; &#1089; CSV</text></g><g class="entity" data-entity="GMN21" data-source-line="33" data-uid="ent0022" id="entity_GMN21"><path d="M264.54,442.89 L264.54,468.0228 A0,0 0 0 0 264.54,468.0228 L467.4638,468.0228 A0,0 0 0 0 467.4638,468.0228 L467.4638,452.89 L457.4638,442.89 L370,442.89 L366,380.17 L362,442.89 L264.54,442.89 A0,0 0 0 0 264.54,442.89" fill="#FEFFDD" style="stroke:#181818;stroke-width:0.5;"/><path d="M457.4638,442.89 L457.4638,452.89 L467.4638,452.89 L457.4638,442.89" fill="#FEFFDD" style="stroke:#181818;stroke-width:0.5;"/><text fill="#000000" font-family="sans-serif" font-size="13" lengthAdjust="spacing" textLength="181.9238" x="270.54" y="459.9569">&#1071;&#1076;&#1088;&#1086; &#1087;&#1088;&#1077;&#1076;&#1084;&#1077;&#1090;&#1085;&#1086;&#1081; &#1086;&#1073;&#1083;&#1072;&#1089;&#1090;&#1080;</text></g><!--link UI to Validator--><g class="link" data-entity-1="UI" data-entity-2="Validator" data-source-line="18" data-uid="lnk11" id="link_UI_Validator"><path d="M306.9,82.74 C291.42,91.31 275.72,103.3 267,119.29 C255.59,140.23 259.7395,162.1986 266.7695,181.3186" fill="none" id="UI-to-Validator" style="stroke:#181818;stroke-width:1;"/><polygon fill="#181818" points="268.84,186.95,269.4885,177.1225,267.1145,182.2572,261.9799,179.8832,268.84,186.95" style="stroke:#181818;stroke-width:1;"/><text fill="#000000" font-family="sans-serif" font-size="13" lengthAdjust="spacing" textLength="138.9438" x="268" y="132.3569">&#1042;&#1072;&#1083;&#1080;&#1076;&#1080;&#1088;&#1091;&#1077;&#1090; &#1076;&#1072;&#1085;&#1085;&#1099;&#1077;</text></g><!--link UI to Service--><g class="link" data-entity-1="UI" data-entity-2="Service" data-source-line="19" data-uid="lnk12" id="link_UI_Service"><path d="M306.68,70.99 C249.73,79.33 155.06,96.22 129,119.29 C109.46,136.59 102.1281,160.367 98.5881,180.927" fill="none" id="UI-to-Service" style="stroke:#181818;stroke-width:1;"/><polygon fill="#181818" points="97.57,186.84,103.0391,178.6492,98.4184,181.9125,95.1551,177.2918,97.57,186.84" style="stroke:#181818;stroke-width:1;"/><text fill="#000000" font-family="sans-serif" font-size="13" lengthAdjust="spacing" textLength="123.5508" x="130" y="132.3569">&#1043;&#1077;&#1085;&#1077;&#1088;&#1080;&#1088;&#1091;&#1077;&#1090; &#1086;&#1090;&#1095;&#1105;&#1090;</text></g><!--link UI to DAL--><g class="link" data-entity-1="UI" data-entity-2="DAL" data-source-line="20" data-uid="lnk13" id="link_UI_DAL"><path d="M394.98,76.84 C443.03,90.33 521.74,114.53 586,144.29 C612.23,156.44 635.0898,170.1093 655.9598,183.6793" fill="none" id="UI-to-DAL" style="stroke:#181818;stroke-width:1;"/><polygon fill="#181818" points="660.99,186.95,655.6252,178.6905,656.7982,184.2244,651.2643,185.3974,660.99,186.95" style="stroke:#181818;stroke-width:1;"/><text fill="#000000" font-family="sans-serif" font-size="13" lengthAdjust="spacing" textLength="150.1157" x="568" y="132.3569">&#1057;&#1086;&#1093;&#1088;&#1072;&#1085;&#1103;&#1077;&#1090;/&#1079;&#1072;&#1075;&#1088;&#1091;&#1078;&#1072;&#1077;&#1090;</text></g><!--link UI to Model--><g class="link" data-entity-1="UI" data-entity-2="Model" data-source-line="21" data-uid="lnk14" id="link_UI_Model"><path d="M385.6,87.74 C395.72,96.29 405.53,106.98 411,119.29 C440.48,185.61 430.76,212.76 411,282.59 C405.76,301.1 397.9147,314.6817 387.9047,328.4117" fill="none" id="UI-to-Model" style="stroke:#181818;stroke-width:1;"/><polygon fill="#181818" points="384.37,333.26,392.9042,328.344,387.3156,329.2198,386.4399,323.6311,384.37,333.26" style="stroke:#181818;stroke-width:1;"/><text fill="#000000" font-family="sans-serif" font-size="13" lengthAdjust="spacing" textLength="143.8125" x="431" y="215.0069">&#1057;&#1086;&#1079;&#1076;&#1072;&#1077;&#1090;/&#1086;&#1090;&#1086;&#1073;&#1088;&#1072;&#1078;&#1072;&#1077;&#1090;</text></g><!--link DAL to Model--><g class="link" data-entity-1="DAL" data-entity-2="Model" data-source-line="23" data-uid="lnk15" id="link_DAL_Model"><path d="M648.44,234.02 C629.52,242.57 607.1,251.66 586,257.59 C562.22,264.28 554.43,257.77 531,265.59 C482.23,281.87 436.0481,308.9661 403.8581,329.9261" fill="none" id="DAL-to-Model" style="stroke:#181818;stroke-width:1;"/><polygon fill="#181818" points="398.83,333.2,408.5547,331.6411,403.02,330.4717,404.1895,324.9371,398.83,333.2" style="stroke:#181818;stroke-width:1;"/><text fill="#000000" font-family="sans-serif" font-size="13" lengthAdjust="spacing" textLength="153.0991" x="532" y="278.6569">&#1056;&#1072;&#1073;&#1086;&#1090;&#1072;&#1077;&#1090; &#1089; &#1086;&#1073;&#1098;&#1077;&#1082;&#1090;&#1072;&#1084;&#1080;</text></g><!--link Service to Model--><g class="link" data-entity-1="Service" data-entity-2="Model" data-source-line="24" data-uid="lnk16" id="link_Service_Model"><path d="M91.85,233.9 C90.99,249.35 92.61,269.4 104,282.59 C132.35,315.43 249.0637,337.8727 316.0237,348.4627" fill="none" id="Service-to-Model" style="stroke:#181818;stroke-width:1;"/><polygon fill="#181818" points="321.95,349.4,313.6853,344.0432,317.0114,348.6189,312.4356,351.945,321.95,349.4" style="stroke:#181818;stroke-width:1;"/><text fill="#000000" font-family="sans-serif" font-size="13" lengthAdjust="spacing" textLength="175.0874" x="105" y="278.6569">&#1048;&#1089;&#1087;&#1086;&#1083;&#1100;&#1079;&#1091;&#1077;&#1090; &#1076;&#1083;&#1103; &#1088;&#1072;&#1089;&#1095;&#1105;&#1090;&#1086;&#1074;</text></g><!--link Validator to Model--><g class="link" data-entity-1="Validator" data-entity-2="Model" data-source-line="25" data-uid="lnk17" id="link_Validator_Model"><path d="M281.3,234.01 C283.52,248.57 287.8,267.54 296,282.59 C306.6,302.04 319.2747,316.0302 333.9347,329.3202" fill="none" id="Validator-to-Model" style="stroke:#181818;stroke-width:1;"/><polygon fill="#181818" points="338.38,333.35,334.3987,324.3417,334.6756,329.9918,329.0255,330.2687,338.38,333.35" style="stroke:#181818;stroke-width:1;"/><text fill="#000000" font-family="sans-serif" font-size="13" lengthAdjust="spacing" textLength="109.9985" x="297" y="278.6569">&#1055;&#1088;&#1086;&#1074;&#1077;&#1088;&#1103;&#1077;&#1090; &#1087;&#1086;&#1083;&#1103;</text></g><!--SRC=[RPBFIiD04CRl-nH3xwLt3qAnbq8BnT9UnCEQhX9iio49GX6XZOYWGb4ltjGdiDN6Lll7LvXz8sStYJ7QKtRt-txVpEp6vTOnFn9GQ7Z25qx00riwKEDzuHNWb07irVjbrzq7xaEhoiuOSrE2Zhks5GCbQ0hlnBP43cq8noSraKn6ievLpvTEctVj3W-aP-IVNQvIHVQuxVo9rh1Xwh8Zkda_3pYKBKlu_WPeLxZIjwb6t-2LSat3hIeKYzjP0x05U8TZNE0SfpXN0tMEaGg1DcDSuKfTOvH2wUo4t6D4QgG6lv6r2jMbkbLX2b1DRNucvOAi5AX6sbh26MtU3FbEgoX3p9G9HAvfh9PqDXrCJ4gAC9sVWvv8cHYlSO0QWg6kgDrFSxh4EKldoA4FQeXVP5we6vnbbx1G8z15rJ0UZHolBBkzNCGZ6KdMrnBF2KdYY37co430WGm2sGDvQ9u3DZQyqsmpuNH00_-m-2SWy0MdkXfLe4z4ZIurJs-onWypCxseRZgaUTEqRm00]--></g></svg>