<svg xmlns="http://www.w3.org/2000/svg" xmlns:xlink="http://www.w3.org/1999/xlink" contentStyleType="text/css" data-diagram-type="CLASS" height="692px" preserveAspectRatio="none" style="width:1334px;height:692px;background:#FFFFFF;" version="1.1" viewBox="0 0 1334 692" width="1334px" zoomAndPan="magnify"><defs/><g><!--class Person--><g class="entity" data-entity="Person" data-source-line="2" data-uid="ent0002" id="entity_Person"><rect fill="#F1F1F1" height="292.4531" rx="2.5" ry="2.5" style="stroke:#181818;stroke-width:0.5;" width="259.2217" x="7" y="392.75"/><ellipse cx="108.5889" cy="408.75" fill="#ADD1B2" rx="11" ry="11" style="stroke:#181818;stroke-width:1;"/><path d="M111.5576,414.3906 Q110.9795,414.6875 110.3389,414.8281 Q109.6982,414.9844 108.9951,414.9844 Q106.4951,414.9844 105.167,413.3438 Q103.8545,411.6875 103.8545,408.5625 Q103.8545,405.4375 105.167,403.7813 Q106.4951,402.125 108.9951,402.125 Q109.6982,402.125 110.3389,402.2813 Q110.9951,402.4375 111.5576,402.7344 L111.5576,405.4531 Q110.9326,404.875 110.3389,404.6094 Q109.7451,404.3281 109.1201,404.3281 Q107.7764,404.3281 107.0889,405.4063 Q106.4014,406.4688 106.4014,408.5625 Q106.4014,410.6563 107.0889,411.7344 Q107.7764,412.7969 109.1201,412.7969 Q109.7451,412.7969 110.3389,412.5313 Q110.9326,412.25 111.5576,411.6719 L111.5576,414.3906 Z " fill="#000000"/><text fill="#000000" font-family="sans-serif" font-size="14" lengthAdjust="spacing" textLength="47.5439" x="129.0889" y="413.5967">Person</text><line style="stroke:#181818;stroke-width:0.5;" x1="8" x2="265.2217" y1="424.75" y2="424.75"/><ellipse cx="18" cy="438.3984" fill="none" rx="3" ry="3" style="stroke:#038048;stroke-width:1;"/><text fill="#000000" font-family="sans-serif" font-size="14" lengthAdjust="spacing" textLength="40.1953" x="27" y="441.7451">id: int</text><ellipse cx="18" cy="454.6953" fill="none" rx="3" ry="3" style="stroke:#038048;stroke-width:1;"/><text fill="#000000" font-family="sans-serif" font-size="14" lengthAdjust="spacing" textLength="99.6611" x="27" y="458.042">last_name: str</text><ellipse cx="18" cy="470.9922" fill="none" rx="3" ry="3" style="stroke:#038048;stroke-width:1;"/><text fill="#000000" font-family="sans-serif" font-size="14" lengthAdjust="spacing" textLength="101.7666" x="27" y="474.3389">first_name: str</text><ellipse cx="18" cy="487.2891" fill="none" rx="3" ry="3" style="stroke:#038048;stroke-width:1;"/><text fill="#000000" font-family="sans-serif" font-size="14" lengthAdjust="spacing" textLength="122.2129" x="27" y="490.6357">middle_name: str</text><ellipse cx="18" cy="503.5859" fill="none" rx="3" ry="3" style="stroke:#038048;stroke-width:1;"/><text fill="#000000" font-family="sans-serif" font-size="14" lengthAdjust="spacing" textLength="77.335" x="27" y="506.9326">gender: str</text><ellipse cx="18" cy="519.8828" fill="none" rx="3" ry="3" style="stroke:#038048;stroke-width:1;"/><text fill="#000000" font-family="sans-serif" font-size="14" lengthAdjust="spacing" textLength="112.1982" x="27" y="523.2295">birth_date: date</text><ellipse cx="18" cy="536.1797" fill="none" rx="3" ry="3" style="stroke:#038048;stroke-width:1;"/><text fill="#000000" font-family="sans-serif" font-size="14" lengthAdjust="spacing" textLength="114.502" x="27" y="539.5264">work_from: date</text><line style="stroke:#181818;stroke-width:0.5;" x1="8" x2="265.2217" y1="546.8281" y2="546.8281"/><ellipse cx="18" cy="560.4766" fill="#84BE84" rx="3" ry="3" style="stroke:#038048;stroke-width:1;"/><text fill="#000000" font-family="sans-serif" font-size="14" lengthAdjust="spacing" textLength="139.1797" x="27" y="563.8232">calculate_age() : int</text><ellipse cx="18" cy="576.7734" fill="#84BE84" rx="3" ry="3" style="stroke:#038048;stroke-width:1;"/><text fill="#000000" font-family="sans-serif" font-size="14" lengthAdjust="spacing" textLength="190.9414" x="27" y="580.1201">calculate_experience() : int</text><ellipse cx="18" cy="593.0703" fill="#84BE84" rx="3" ry="3" style="stroke:#038048;stroke-width:1;"/><text fill="#000000" font-family="sans-serif" font-size="14" lengthAdjust="spacing" textLength="119.6357" x="27" y="596.417">is_retired() : bool</text><ellipse cx="18" cy="609.3672" fill="#84BE84" rx="3" ry="3" style="stroke:#038048;stroke-width:1;"/><text fill="#000000" font-family="sans-serif" font-size="14" lengthAdjust="spacing" textLength="186.9082" x="27" y="612.7139">required_experience() : int</text><ellipse cx="18" cy="625.6641" fill="#84BE84" rx="3" ry="3" style="stroke:#038048;stroke-width:1;"/><text fill="#000000" font-family="sans-serif" font-size="14" lengthAdjust="spacing" textLength="223.7197" x="27" y="629.0107">has_enough_experience() : bool</text><ellipse cx="18" cy="641.9609" fill="#84BE84" rx="3" ry="3" style="stroke:#038048;stroke-width:1;"/><text fill="#000000" font-family="sans-serif" font-size="14" lengthAdjust="spacing" textLength="233.2217" x="27" y="645.3076">years_until_retirement() : int | str</text><ellipse cx="18" cy="658.2578" fill="#84BE84" rx="3" ry="3" style="stroke:#038048;stroke-width:1;"/><text fill="#000000" font-family="sans-serif" font-size="14" lengthAdjust="spacing" textLength="170.9395" x="27" y="661.6045">experience_status() : str</text><ellipse cx="18" cy="674.5547" fill="#84BE84" rx="3" ry="3" style="stroke:#038048;stroke-width:1;"/><text fill="#000000" font-family="sans-serif" font-size="14" lengthAdjust="spacing" textLength="155.75" x="27" y="677.9014">get_short_name() : str</text></g><!--class PersonValidator--><g class="entity" data-entity="PersonValidator" data-source-line="21" data-uid="ent0003" id="entity_PersonValidator"><rect fill="#F1F1F1" height="64.2969" rx="2.5" ry="2.5" style="stroke:#181818;stroke-width:0.5;" width="261.4775" x="468.87" y="506.83"/><ellipse cx="539.9808" cy="522.83" fill="#ADD1B2" rx="11" ry="11" style="stroke:#181818;stroke-width:1;"/><path d="M542.9496,528.4706 Q542.3715,528.7675 541.7308,528.9081 Q541.0902,529.0644 540.3871,529.0644 Q537.8871,529.0644 536.559,527.4238 Q535.2465,525.7675 535.2465,522.6425 Q535.2465,519.5175 536.559,517.8613 Q537.8871,516.205 540.3871,516.205 Q541.0902,516.205 541.7308,516.3613 Q542.3871,516.5175 542.9496,516.8144 L542.9496,519.5331 Q542.3246,518.955 541.7308,518.6894 Q541.1371,518.4081 540.5121,518.4081 Q539.1683,518.4081 538.4808,519.4863 Q537.7933,520.5488 537.7933,522.6425 Q537.7933,524.7363 538.4808,525.8144 Q539.1683,526.8769 540.5121,526.8769 Q541.1371,526.8769 541.7308,526.6113 Q542.3246,526.33 542.9496,525.7519 L542.9496,528.4706 Z " fill="#000000"/><text fill="#000000" font-family="sans-serif" font-size="14" lengthAdjust="spacing" textLength="110.7559" x="560.4808" y="527.6767">PersonValidator</text><line style="stroke:#181818;stroke-width:0.5;" x1="469.87" x2="729.3475" y1="538.83" y2="538.83"/><line style="stroke:#181818;stroke-width:0.5;" x1="469.87" x2="729.3475" y1="546.83" y2="546.83"/><ellipse cx="479.87" cy="560.4784" fill="#84BE84" rx="3" ry="3" style="stroke:#038048;stroke-width:1;"/><text fill="#000000" font-family="sans-serif" font-size="14" lengthAdjust="spacing" text-decoration="underline" textLength="235.4775" x="488.87" y="563.8251">validate(person: Person) : list[str]</text></g><!--class PensionService--><g class="entity" data-entity="PensionService" data-source-line="26" data-uid="ent0004" id="entity_PensionService"><rect fill="#F1F1F1" height="64.2969" rx="2.5" ry="2.5" style="stroke:#181818;stroke-width:0.5;" width="287.2695" x="764.98" y="506.83"/><ellipse cx="851.2188" cy="522.83" fill="#ADD1B2" rx="11" ry="11" style="stroke:#181818;stroke-width:1;"/><path d="M854.1875,528.4706 Q853.6094,528.7675 852.9688,528.9081 Q852.3281,529.0644 851.625,529.0644 Q849.125,529.0644 847.7969,527.4238 Q846.4844,525.7675 846.4844,522.6425 Q846.4844,519.5175 847.7969,517.8613 Q849.125,516.205 851.625,516.205 Q852.3281,516.205 852.9688,516.3613 Q853.625,516.5175 854.1875,516.8144 L854.1875,519.5331 Q853.5625,518.955 852.9688,518.6894 Q852.375,518.4081 851.75,518.4081 Q850.4063,518.4081 849.7188,519.4863 Q849.0313,520.5488 849.0313,522.6425 Q849.0313,524.7363 849.7188,525.8144 Q850.4063,526.8769 851.75,526.8769 Q852.375,526.8769 852.9688,526.6113 Q853.5625,526.33 854.1875,525.7519 L854.1875,528.4706 Z " fill="#000000"/><text fill="#000000" font-family="sans-serif" font-size="14" lengthAdjust="spacing" textLength="106.292" x="871.7188" y="527.6767">PensionService</text><line style="stroke:#181818;stroke-width:0.5;" x1="765.98" x2="1051.2495" y1="538.83" y2="538.83"/><line style="stroke:#181818;stroke-width:0.5;" x1="765.98" x2="1051.2495" y1="546.83" y2="546.83"/><ellipse cx="775.98" cy="560.4784" fill="#84BE84" rx="3" ry="3" style="stroke:#038048;stroke-width:1;"/><text fill="#000000" font-family="sans-serif" font-size="14" lengthAdjust="spacing" text-decoration="underline" textLength="261.2695" x="784.98" y="563.8251">generate_report(person: Person) : str</text></g><!--class PersonRepository--><g class="entity" data-entity="PersonRepository" data-source-line="31" data-uid="ent0005" id="entity_PersonRepository"><rect fill="#F1F1F1" height="113.1875" rx="2.5" ry="2.5" style="stroke:#181818;stroke-width:0.5;" width="240.4434" x="1087.39" y="482.38"/><ellipse cx="1142.0536" cy="498.38" fill="#ADD1B2" rx="11" ry="11" style="stroke:#181818;stroke-width:1;"/><path d="M1145.0223,504.0206 Q1144.4442,504.3175 1143.8036,504.4581 Q1143.1629,504.6144 1142.4598,504.6144 Q1139.9598,504.6144 1138.6317,502.9738 Q1137.3192,501.3175 1137.3192,498.1925 Q1137.3192,495.0675 1138.6317,493.4113 Q1139.9598,491.755 1142.4598,491.755 Q1143.1629,491.755 1143.8036,491.9113 Q1144.4598,492.0675 1145.0223,492.3644 L1145.0223,495.0831 Q1144.3973,494.505 1143.8036,494.2394 Q1143.2098,493.9581 1142.5848,493.9581 Q1141.2411,493.9581 1140.5536,495.0363 Q1139.8661,496.0988 1139.8661,498.1925 Q1139.8661,500.2863 1140.5536,501.3644 Q1141.2411,502.4269 1142.5848,502.4269 Q1143.2098,502.4269 1143.8036,502.1613 Q1144.3973,501.88 1145.0223,501.3019 L1145.0223,504.0206 Z " fill="#000000"/><text fill="#000000" font-family="sans-serif" font-size="14" lengthAdjust="spacing" textLength="122.6162" x="1162.5536" y="503.2267">PersonRepository</text><line style="stroke:#181818;stroke-width:0.5;" x1="1088.39" x2="1326.8334" y1="514.38" y2="514.38"/><rect fill="none" height="6" style="stroke:#C82930;stroke-width:1;" width="6" x="1095.39" y="525.0284"/><text fill="#000000" font-family="sans-serif" font-size="14" lengthAdjust="spacing" textLength="88.7305" x="1107.39" y="531.3751">filename: str</text><line style="stroke:#181818;stroke-width:0.5;" x1="1088.39" x2="1326.8334" y1="538.6769" y2="538.6769"/><ellipse cx="1098.39" cy="552.3253" fill="#84BE84" rx="3" ry="3" style="stroke:#038048;stroke-width:1;"/><text fill="#000000" font-family="sans-serif" font-size="14" lengthAdjust="spacing" textLength="160.7607" x="1107.39" y="555.672">load_all() : List[Person]</text><ellipse cx="1098.39" cy="568.6222" fill="#84BE84" rx="3" ry="3" style="stroke:#038048;stroke-width:1;"/><text fill="#000000" font-family="sans-serif" font-size="14" lengthAdjust="spacing" textLength="214.4434" x="1107.39" y="571.9689">save_all(persons: List[Person])</text><rect fill="#F24D5C" height="6" style="stroke:#C82930;stroke-width:1;" width="6" x="1095.39" y="581.9191"/><text fill="#000000" font-family="sans-serif" font-size="14" lengthAdjust="spacing" textLength="142.1328" x="1107.39" y="588.2657">_ensure_file_exists()</text></g><!--class MyApp--><g class="entity" data-entity="MyApp" data-source-line="39" data-uid="ent0006" id="entity_MyApp"><rect fill="#F1F1F1" height="308.75" rx="2.5" ry="2.5" style="stroke:#181818;stroke-width:0.5;" width="275.293" x="615.96" y="7"/><ellipse cx="725.4991" cy="23" fill="#ADD1B2" rx="11" ry="11" style="stroke:#181818;stroke-width:1;"/><path d="M728.4678,28.6406 Q727.8897,28.9375 727.2491,29.0781 Q726.6084,29.2344 725.9053,29.2344 Q723.4053,29.2344 722.0772,27.5938 Q720.7647,25.9375 720.7647,22.8125 Q720.7647,19.6875 722.0772,18.0313 Q723.4053,16.375 725.9053,16.375 Q726.6084,16.375 727.2491,16.5313 Q727.9053,16.6875 728.4678,16.9844 L728.4678,19.7031 Q727.8428,19.125 727.2491,18.8594 Q726.6553,18.5781 726.0303,18.5781 Q724.6866,18.5781 723.9991,19.6563 Q723.3116,20.7188 723.3116,22.8125 Q723.3116,24.9063 723.9991,25.9844 Q724.6866,27.0469 726.0303,27.0469 Q726.6553,27.0469 727.2491,26.7813 Q727.8428,26.5 728.4678,25.9219 L728.4678,28.6406 Z " fill="#000000"/><text fill="#000000" font-family="sans-serif" font-size="14" lengthAdjust="spacing" textLength="47.7148" x="745.9991" y="27.8467">MyApp</text><line style="stroke:#181818;stroke-width:0.5;" x1="616.96" x2="890.253" y1="39" y2="39"/><rect fill="none" height="6" style="stroke:#C82930;stroke-width:1;" width="6" x="623.96" y="49.6484"/><text fill="#000000" font-family="sans-serif" font-size="14" lengthAdjust="spacing" textLength="163.6045" x="635.96" y="55.9951">repo: PersonRepository</text><rect fill="none" height="6" style="stroke:#C82930;stroke-width:1;" width="6" x="623.96" y="65.9453"/><text fill="#000000" font-family="sans-serif" font-size="14" lengthAdjust="spacing" textLength="147.3896" x="635.96" y="72.292">persons: List[Person]</text><rect fill="none" height="6" style="stroke:#C82930;stroke-width:1;" width="6" x="623.96" y="82.2422"/><text fill="#000000" font-family="sans-serif" font-size="14" lengthAdjust="spacing" textLength="249.293" x="635.96" y="88.5889">entry1, entry2, ... : Entry/DateEntry</text><rect fill="none" height="6" style="stroke:#C82930;stroke-width:1;" width="6" x="623.96" y="98.5391"/><text fill="#000000" font-family="sans-serif" font-size="14" lengthAdjust="spacing" textLength="101.4111" x="635.96" y="104.8857">tree: Treeview</text><line style="stroke:#181818;stroke-width:0.5;" x1="616.96" x2="890.253" y1="112.1875" y2="112.1875"/><ellipse cx="626.96" cy="125.8359" fill="#84BE84" rx="3" ry="3" style="stroke:#038048;stroke-width:1;"/><text fill="#000000" font-family="sans-serif" font-size="14" lengthAdjust="spacing" textLength="61.0654" x="635.96" y="129.1826">__init__()</text><ellipse cx="626.96" cy="142.1328" fill="#84BE84" rx="3" ry="3" style="stroke:#038048;stroke-width:1;"/><text fill="#000000" font-family="sans-serif" font-size="14" lengthAdjust="spacing" textLength="111.2002" x="635.96" y="145.4795">create_entries()</text><ellipse cx="626.96" cy="158.4297" fill="#84BE84" rx="3" ry="3" style="stroke:#038048;stroke-width:1;"/><text fill="#000000" font-family="sans-serif" font-size="14" lengthAdjust="spacing" textLength="116.1426" x="635.96" y="161.7764">create_buttons()</text><ellipse cx="626.96" cy="174.7266" fill="#84BE84" rx="3" ry="3" style="stroke:#038048;stroke-width:1;"/><text fill="#000000" font-family="sans-serif" font-size="14" lengthAdjust="spacing" textLength="123.3818" x="635.96" y="178.0732">create_treeview()</text><ellipse cx="626.96" cy="191.0234" fill="#84BE84" rx="3" ry="3" style="stroke:#038048;stroke-width:1;"/><text fill="#000000" font-family="sans-serif" font-size="14" lengthAdjust="spacing" textLength="135.4678" x="635.96" y="194.3701">_refresh_treeview()</text><ellipse cx="626.96" cy="207.3203" fill="#84BE84" rx="3" ry="3" style="stroke:#038048;stroke-width:1;"/><text fill="#000000" font-family="sans-serif" font-size="14" lengthAdjust="spacing" textLength="236.8379" x="635.96" y="210.667">_get_person_from_form() : Person</text><ellipse cx="626.96" cy="223.6172" fill="#84BE84" rx="3" ry="3" style="stroke:#038048;stroke-width:1;"/><text fill="#000000" font-family="sans-serif" font-size="14" lengthAdjust="spacing" textLength="92.2646" x="635.96" y="226.9639">add_person()</text><ellipse cx="626.96" cy="239.9141" fill="#84BE84" rx="3" ry="3" style="stroke:#038048;stroke-width:1;"/><text fill="#000000" font-family="sans-serif" font-size="14" lengthAdjust="spacing" textLength="92.791" x="635.96" y="243.2607">edit_person()</text><ellipse cx="626.96" cy="256.2109" fill="#84BE84" rx="3" ry="3" style="stroke:#038048;stroke-width:1;"/><text fill="#000000" font-family="sans-serif" font-size="14" lengthAdjust="spacing" textLength="110.0176" x="635.96" y="259.5576">delete_person()</text><ellipse cx="626.96" cy="272.5078" fill="#84BE84" rx="3" ry="3" style="stroke:#038048;stroke-width:1;"/><text fill="#000000" font-family="sans-serif" font-size="14" lengthAdjust="spacing" textLength="100.9873" x="635.96" y="275.8545">clear_entries()</text><ellipse cx="626.96" cy="288.8047" fill="#84BE84" rx="3" ry="3" style="stroke:#038048;stroke-width:1;"/><text fill="#000000" font-family="sans-serif" font-size="14" lengthAdjust="spacing" textLength="116.833" x="635.96" y="292.1514">on_select(event)</text><ellipse cx="626.96" cy="305.1016" fill="#84BE84" rx="3" ry="3" style="stroke:#038048;stroke-width:1;"/><text fill="#000000" font-family="sans-serif" font-size="14" lengthAdjust="spacing" textLength="147.5742" x="635.96" y="308.4482">selection_stat(event)</text></g><g class="entity" data-entity="GMN11" data-source-line="65" data-uid="ent0012" id="entity_GMN11"><path d="M925.87,133.67 L925.87,157.37 L891.73,161.37 L925.87,165.37 L925.87,189.0684 A0,0 0 0 0 925.87,189.0684 L1079.3456,189.0684 A0,0 0 0 0 1079.3456,189.0684 L1079.3456,143.67 L1069.3456,133.67 L925.87,133.67 A0,0 0 0 0 925.87,133.67" fill="#FEFFDD" style="stroke:#181818;stroke-width:0.5;"/><path d="M1069.3456,133.67 L1069.3456,143.67 L1079.3456,143.67 L1069.3456,133.67" fill="#FEFFDD" style="stroke:#181818;stroke-width:0.5;"/><text fill="#000000" font-family="sans-serif" font-size="13" lengthAdjust="spacing" textLength="123.8047" x="931.87" y="150.7369">&#1043;&#1083;&#1072;&#1074;&#1085;&#1099;&#1081; UI-&#1082;&#1083;&#1072;&#1089;&#1089;.</text><text fill="#000000" font-family="sans-serif" font-size="13" lengthAdjust="spacing" textLength="132.4756" x="931.87" y="165.8697">&#1044;&#1077;&#1083;&#1077;&#1075;&#1080;&#1088;&#1091;&#1077;&#1090; &#1083;&#1086;&#1075;&#1080;&#1082;&#1091;</text><text fill="#000000" font-family="sans-serif" font-size="13" lengthAdjust="spacing" textLength="99.3218" x="931.87" y="181.0025">&#1076;&#1088;&#1091;&#1075;&#1080;&#1084; &#1089;&#1083;&#1086;&#1103;&#1084;.</text></g><g class="entity" data-entity="GMN14" data-source-line="71" data-uid="ent0015" id="entity_GMN14"><path d="M300.96,511.27 L300.96,534.97 L266.55,538.97 L300.96,542.97 L300.96,566.6684 A0,0 0 0 0 300.96,566.6684 L434.2627,566.6684 A0,0 0 0 0 434.2627,566.6684 L434.2627,521.27 L424.2627,511.27 L300.96,511.27 A0,0 0 0 0 300.96,511.27" fill="#FEFFDD" style="stroke:#181818;stroke-width:0.5;"/><path d="M424.2627,511.27 L424.2627,521.27 L434.2627,521.27 L424.2627,511.27" fill="#FEFFDD" style="stroke:#181818;stroke-width:0.5;"/><text fill="#000000" font-family="sans-serif" font-size="13" lengthAdjust="spacing" textLength="112.3027" x="306.96" y="528.3369">&#1052;&#1086;&#1076;&#1077;&#1083;&#1100; &#1076;&#1072;&#1085;&#1085;&#1099;&#1093;.</text><text fill="#000000" font-family="sans-serif" font-size="13" lengthAdjust="spacing" textLength="105.6567" x="306.96" y="543.4697">&#1048;&#1085;&#1082;&#1072;&#1087;&#1089;&#1091;&#1083;&#1080;&#1088;&#1091;&#1077;&#1090;</text><text fill="#000000" font-family="sans-serif" font-size="13" lengthAdjust="spacing" textLength="102.9336" x="306.96" y="558.6025">&#1073;&#1080;&#1079;&#1085;&#1077;&#1089;-&#1083;&#1086;&#1075;&#1080;&#1082;&#1091;.</text></g><!--link MyApp to PersonRepository--><g class="link" data-entity-1="MyApp" data-entity-2="PersonRepository" data-source-line="59" data-uid="lnk7" id="link_MyApp_PersonRepository"><path codeLine="59" d="M891.51,303.05 C897.17,307.47 902.88,311.72 908.61,315.75 C973.48,361.39 1005.45,346.11 1069.61,392.75 C1104.5,418.1 1134.048,448.4293 1159.278,477.6393" fill="none" id="MyApp-to-PersonRepository" style="stroke:#181818;stroke-width:1;"/><polygon fill="#181818" points="1163.2,482.18,1160.3441,472.7543,1159.9317,478.3961,1154.2899,477.9836,1163.2,482.18" style="stroke:#181818;stroke-width:1;"/><text fill="#000000" font-family="sans-serif" font-size="13" lengthAdjust="spacing" textLength="78.1968" x="1014.61" y="358.8169">&#1080;&#1089;&#1087;&#1086;&#1083;&#1100;&#1079;&#1091;&#1077;&#1090;</text></g><!--link MyApp to PersonValidator--><g class="link" data-entity-1="MyApp" data-entity-2="PersonValidator" data-source-line="60" data-uid="lnk8" id="link_MyApp_PersonValidator"><path codeLine="60" d="M690.53,316.23 C661.54,386.93 632.1069,458.7288 614.8469,500.8088" fill="none" id="MyApp-to-PersonValidator" style="stroke:#181818;stroke-width:1;"/><polygon fill="#181818" points="612.57,506.36,619.6862,499.5512,614.4674,501.734,612.2846,496.5153,612.57,506.36" style="stroke:#181818;stroke-width:1;"/><text fill="#000000" font-family="sans-serif" font-size="13" lengthAdjust="spacing" textLength="66.3013" x="677.61" y="358.8169">&#1074;&#1099;&#1079;&#1099;&#1074;&#1072;&#1077;&#1090;</text></g><!--link MyApp to PensionService--><g class="link" data-entity-1="MyApp" data-entity-2="PensionService" data-source-line="61" data-uid="lnk9" id="link_MyApp_PensionService"><path codeLine="61" d="M817.1,316.23 C846.28,386.93 875.9118,458.7335 893.2718,500.8135" fill="none" id="MyApp-to-PensionService" style="stroke:#181818;stroke-width:1;"/><polygon fill="#181818" points="895.56,506.36,895.8254,496.5147,893.6532,501.7379,888.43,499.5657,895.56,506.36" style="stroke:#181818;stroke-width:1;"/><text fill="#000000" font-family="sans-serif" font-size="13" lengthAdjust="spacing" textLength="66.3013" x="837.61" y="358.8169">&#1074;&#1099;&#1079;&#1099;&#1074;&#1072;&#1077;&#1090;</text></g><!--link MyApp to Person--><g class="link" data-entity-1="MyApp" data-entity-2="Person" data-source-line="62" data-uid="lnk10" id="link_MyApp_Person"><path codeLine="62" d="M615.71,215.92 C518.41,256.98 387.43,319.02 283.61,392.75 C277.91,396.8 276.9304,397.3535 271.2904,401.8035" fill="none" id="MyApp-to-Person" style="stroke:#181818;stroke-width:1;"/><polygon fill="#181818" points="266.58,405.52,276.1232,403.0855,270.5053,402.4229,271.1679,396.805,266.58,405.52" style="stroke:#181818;stroke-width:1;"/><text fill="#000000" font-family="sans-serif" font-size="13" lengthAdjust="spacing" textLength="154.2163" x="356.61" y="358.8169">&#1089;&#1086;&#1079;&#1076;&#1072;&#1077;&#1090; &#1080; &#1086;&#1090;&#1086;&#1073;&#1088;&#1072;&#1078;&#1072;&#1077;&#1090;</text></g><!--SRC=[XLNTQXD15BxFKynT4smYUXbG4FIYe21glP6oRBCdoU1cDyvCKaCjj0rwqq8l51JnnZT8QshJDcrUOVQD_6PsyhVPOaetsU-SC-VlEsVMs2FpOVgdljQ3v01_HqnFadrzheTwhC-JGtsZR_Kbm-FKwHpgKMfMg8M-bEmb2Hb7RBV0yBd7U51bF5Bk3HhAY_mMLPbKme5rBdBG5W-2a5RW1aK1YKLacmlLz09VGSyy7RmJY_TUNSIj9RJcXxLEY7VFRr2nn1Q3cyleOvi4fwYMLU7I4wIueC0AjkCuT1917pe6lzkswKkFehZJQ6Pr5exfaI-aruaK3vsd5aLgUXBxj93t_11FAbzrfDLQh9JoP3CMQMbdmhr2OMtQvz_eeMtdcHxWvmXT7YHVy9tNqhT-o579MCnwkslyyjeUwwOYAhQjPjLP69SXb-eT_6xbEpw5imkGwZmvA5li3u2h5V-Hv77qcaINrsZLFJX1mlHDK1lvvaHnP-93VMiudFJrH0-OlZB80F7S94Twd5E4L_0WEOhGSs6KGT-GiYmDOp_m_32qLNzkIf2QRpcvzBjavMceSbcfv4u6NMH7a6SyW3FGG8_pyt13QkTnW7PUu-r6Zv8JLjpSA2qbygBtfDsUHMzALbr9pWbpetCoq5Bq7godtm_NMQLIGQxFpDlzfsY6_ULqbI2KvmsUNKuxhWQUnoEkFAzOciwV83jyCEGai_1sHod4aeMLEtI6WmHrGRAP8p4JaQPa5uDNZqNBTYZDpAdvGU2qPfOKS9N50We9_ZDeBSG0hwG0XnBgDLMaBcHJECMuaOB9KzbYVx_RPewI0qp5EANgR3RIFfRBZrUfMMNMPW9kN2V7-WBqnkvUiPXFD0pEmFWB_9jLa5LU6h__wDhjNsLmVul97gOQY0Tt1eB7lG6c3lHVPrc8OaLCy4PJiRYUSXFLqL_DxOBppHnUiisDCfQ2kvCgHluD_3OSnxf8zjFqs7n_97sZCxGI0unDE90c9tfSAU06OSPjrlcC1VeN3XeQ3ydnma98FblNF_1s1Mo2OFfcQqu3CCByVPRqvrx_0G00]--></g></svg>