<svg xmlns="http://www.w3.org/2000/svg" xmlns:xlink="http://www.w3.org/1999/xlink" contentStyleType="text/css" data-diagram-type="SEQUENCE" height="555px" preserveAspectRatio="none" style="width:675px;height:555px;background:#FFFFFF;" version="1.1" viewBox="0 0 675 555" width="675px" zoomAndPan="magnify"><defs/><g><rect fill="none" height="258.7344" style="stroke:#000000;stroke-width:1.5;" width="473.4751" x="195.4678" y="198.6953"/><g><title>............</title><rect fill="#000000" fill-opacity="0.00000" height="393.1328" width="8" x="55.5498" y="81.2969"/><line style="stroke:#181818;stroke-width:0.5;stroke-dasharray:5,5;" x1="59" x2="59" y1="81.2969" y2="474.4297"/></g><g><title>MyApp</title><rect fill="#000000" fill-opacity="0.00000" height="393.1328" width="8" x="232.3252" y="81.2969"/><line style="stroke:#181818;stroke-width:0.5;stroke-dasharray:5,5;" x1="235.4678" x2="235.4678" y1="81.2969" y2="474.4297"/></g><g><title>PersonValidator</title><rect fill="#000000" fill-opacity="0.00000" height="393.1328" width="8" x="445.9487" y="81.2969"/><line style="stroke:#181818;stroke-width:0.5;stroke-dasharray:5,5;" x1="449.5708" x2="449.5708" y1="81.2969" y2="474.4297"/></g><g><title>PersonRepository</title><rect fill="#000000" fill-opacity="0.00000" height="393.1328" width="8" x="586.6348" y="81.2969"/><line style="stroke:#181818;stroke-width:0.5;stroke-dasharray:5,5;" x1="590.3267" x2="590.3267" y1="81.2969" y2="474.4297"/></g><g class="participant participant-head" data-participant="User"><text fill="#000000" font-family="sans-serif" font-size="14" lengthAdjust="spacing" textLength="103.0996" x="5" y="77.9951">&#1055;&#1086;&#1083;&#1100;&#1079;&#1086;&#1074;&#1072;&#1090;&#1077;&#1083;&#1100;</text><ellipse cx="59.5498" cy="13.5" fill="#E2E2F0" rx="8" ry="8" style="stroke:#181818;stroke-width:0.5;"/><path d="M59.5498,21.5 L59.5498,48.5 M46.5498,29.5 L72.5498,29.5 M59.5498,48.5 L46.5498,63.5 M59.5498,48.5 L72.5498,63.5" fill="none" style="stroke:#181818;stroke-width:0.5;"/></g><g class="participant participant-tail" data-participant="User"><text fill="#000000" font-family="sans-serif" font-size="14" lengthAdjust="spacing" textLength="103.0996" x="5" y="486.4248">&#1055;&#1086;&#1083;&#1100;&#1079;&#1086;&#1074;&#1072;&#1090;&#1077;&#1083;&#1100;</text><ellipse cx="59.5498" cy="498.2266" fill="#E2E2F0" rx="8" ry="8" style="stroke:#181818;stroke-width:0.5;"/><path d="M59.5498,506.2266 L59.5498,533.2266 M46.5498,514.2266 L72.5498,514.2266 M59.5498,533.2266 L46.5498,548.2266 M59.5498,533.2266 L72.5498,548.2266" fill="none" style="stroke:#181818;stroke-width:0.5;"/></g><g class="participant participant-head" data-participant="UI"><rect fill="#E2E2F0" height="30.2969" rx="2.5" ry="2.5" style="stroke:#181818;stroke-width:0.5;" width="61.7148" x="205.4678" y="50"/><text fill="#000000" font-family="sans-serif" font-size="14" lengthAdjust="spacing" textLength="47.7148" x="212.4678" y="69.9951">MyApp</text></g><g class="participant participant-tail" data-participant="UI"><rect fill="#E2E2F0" height="30.2969" rx="2.5" ry="2.5" style="stroke:#181818;stroke-width:0.5;" width="61.7148" x="205.4678" y="473.4297"/><text fill="#000000" font-family="sans-serif" font-size="14" lengthAdjust="spacing" textLength="47.7148" x="212.4678" y="493.4248">MyApp</text></g><g class="participant participant-head" data-participant="Validator"><rect fill="#E2E2F0" height="30.2969" rx="2.5" ry="2.5" style="stroke:#181818;stroke-width:0.5;" width="124.7559" x="387.5708" y="50"/><text fill="#000000" font-family="sans-serif" font-size="14" lengthAdjust="spacing" textLength="110.7559" x="394.5708" y="69.9951">PersonValidator</text></g><g class="participant participant-tail" data-participant="Validator"><rect fill="#E2E2F0" height="30.2969" rx="2.5" ry="2.5" style="stroke:#181818;stroke-width:0.5;" width="124.7559" x="387.5708" y="473.4297"/><text fill="#000000" font-family="sans-serif" font-size="14" lengthAdjust="spacing" textLength="110.7559" x="394.5708" y="493.4248">PersonValidator</text></g><g class="participant participant-head" data-participant="Repo"><rect fill="#E2E2F0" height="30.2969" rx="2.5" ry="2.5" style="stroke:#181818;stroke-width:0.5;" width="136.6162" x="522.3267" y="50"/><text fill="#000000" font-family="sans-serif" font-size="14" lengthAdjust="spacing" textLength="122.6162" x="529.3267" y="69.9951">PersonRepository</text></g><g class="participant participant-tail" data-participant="Repo"><rect fill="#E2E2F0" height="30.2969" rx="2.5" ry="2.5" style="stroke:#181818;stroke-width:0.5;" width="136.6162" x="522.3267" y="473.4297"/><text fill="#000000" font-family="sans-serif" font-size="14" lengthAdjust="spacing" textLength="122.6162" x="529.3267" y="493.4248">PersonRepository</text></g><g class="message" data-participant-1="User" data-participant-2="UI"><polygon fill="#181818" points="224.3252,108.4297,234.3252,112.4297,224.3252,116.4297,228.3252,112.4297" style="stroke:#181818;stroke-width:1;"/><line style="stroke:#181818;stroke-width:1;" x1="59.5498" x2="230.3252" y1="112.4297" y2="112.4297"/><text fill="#000000" font-family="sans-serif" font-size="13" lengthAdjust="spacing" textLength="152.7754" x="66.5498" y="107.3638">&#1053;&#1072;&#1078;&#1080;&#1084;&#1072;&#1077;&#1090; "&#1044;&#1086;&#1073;&#1072;&#1074;&#1080;&#1090;&#1100;"</text></g><g class="message" data-participant-1="UI" data-participant-2="UI"><line style="stroke:#181818;stroke-width:1;" x1="236.3252" x2="278.3252" y1="141.5625" y2="141.5625"/><line style="stroke:#181818;stroke-width:1;" x1="278.3252" x2="278.3252" y1="141.5625" y2="154.5625"/><line style="stroke:#181818;stroke-width:1;" x1="237.3252" x2="278.3252" y1="154.5625" y2="154.5625"/><polygon fill="#181818" points="247.3252,150.5625,237.3252,154.5625,247.3252,158.5625,243.3252,154.5625" style="stroke:#181818;stroke-width:1;"/><text fill="#000000" font-family="sans-serif" font-size="13" lengthAdjust="spacing" textLength="163.1284" x="243.3252" y="136.4966">_get_person_from_form()</text></g><g class="message" data-participant-1="UI" data-participant-2="Validator"><polygon fill="#181818" points="437.9487,179.6953,447.9487,183.6953,437.9487,187.6953,441.9487,183.6953" style="stroke:#181818;stroke-width:1;"/><line style="stroke:#181818;stroke-width:1;" x1="236.3252" x2="443.9487" y1="183.6953" y2="183.6953"/><text fill="#000000" font-family="sans-serif" font-size="13" lengthAdjust="spacing" textLength="106.9009" x="243.3252" y="178.6294">validate(person)</text></g><path d="M195.4678,198.6953 L259.9106,198.6953 L259.9106,205.8281 L249.9106,215.8281 L195.4678,215.8281 L195.4678,198.6953" fill="#EEEEEE" style="stroke:#000000;stroke-width:1.5;"/><rect fill="none" height="258.7344" style="stroke:#000000;stroke-width:1.5;" width="473.4751" x="195.4678" y="198.6953"/><text fill="#000000" font-family="sans-serif" font-size="13" font-weight="bold" lengthAdjust="spacing" textLength="19.4429" x="210.4678" y="211.7622">alt</text><text fill="#000000" font-family="sans-serif" font-size="11" font-weight="bold" lengthAdjust="spacing" textLength="91.0508" x="274.9106" y="210.9058">[&#1045;&#1089;&#1090;&#1100; &#1086;&#1096;&#1080;&#1073;&#1082;&#1080;]</text><g class="message" data-participant-1="Validator" data-participant-2="UI"><polygon fill="#181818" points="247.3252,232.9609,237.3252,236.9609,247.3252,240.9609,243.3252,236.9609" style="stroke:#181818;stroke-width:1;"/><line style="stroke:#181818;stroke-width:1;stroke-dasharray:2,2;" x1="241.3252" x2="448.9487" y1="236.9609" y2="236.9609"/><text fill="#000000" font-family="sans-serif" font-size="13" lengthAdjust="spacing" textLength="189.6235" x="253.3252" y="231.895">&#1074;&#1086;&#1079;&#1074;&#1088;&#1072;&#1097;&#1072;&#1077;&#1090; &#1089;&#1087;&#1080;&#1089;&#1086;&#1082; &#1086;&#1096;&#1080;&#1073;&#1086;&#1082;</text></g><g class="message" data-participant-1="UI" data-participant-2="UI"><line style="stroke:#181818;stroke-width:1;" x1="236.3252" x2="278.3252" y1="266.0938" y2="266.0938"/><line style="stroke:#181818;stroke-width:1;" x1="278.3252" x2="278.3252" y1="266.0938" y2="279.0938"/><line style="stroke:#181818;stroke-width:1;" x1="237.3252" x2="278.3252" y1="279.0938" y2="279.0938"/><polygon fill="#181818" points="247.3252,275.0938,237.3252,279.0938,247.3252,283.0938,243.3252,279.0938" style="stroke:#181818;stroke-width:1;"/><text fill="#000000" font-family="sans-serif" font-size="13" lengthAdjust="spacing" textLength="96.0273" x="243.3252" y="261.0278">showwarning()</text></g><line style="stroke:#000000;stroke-width:1;stroke-dasharray:2,2;" x1="195.4678" x2="668.9429" y1="288.0938" y2="288.0938"/><text fill="#000000" font-family="sans-serif" font-size="11" font-weight="bold" lengthAdjust="spacing" textLength="86.5767" x="200.4678" y="298.3042">[&#1053;&#1077;&#1090; &#1086;&#1096;&#1080;&#1073;&#1086;&#1082;]</text><g class="message" data-participant-1="UI" data-participant-2="Repo"><polygon fill="#181818" points="578.6348,319.0313,588.6348,323.0313,578.6348,327.0313,582.6348,323.0313" style="stroke:#181818;stroke-width:1;"/><line style="stroke:#181818;stroke-width:1;" x1="236.3252" x2="584.6348" y1="323.0313" y2="323.0313"/><text fill="#000000" font-family="sans-serif" font-size="13" lengthAdjust="spacing" textLength="113.5977" x="243.3252" y="317.9653">save_all(persons)</text></g><g class="message" data-participant-1="UI" data-participant-2="UI"><line style="stroke:#181818;stroke-width:1;" x1="236.3252" x2="278.3252" y1="352.1641" y2="352.1641"/><line style="stroke:#181818;stroke-width:1;" x1="278.3252" x2="278.3252" y1="352.1641" y2="365.1641"/><line style="stroke:#181818;stroke-width:1;" x1="237.3252" x2="278.3252" y1="365.1641" y2="365.1641"/><polygon fill="#181818" points="247.3252,361.1641,237.3252,365.1641,247.3252,369.1641,243.3252,365.1641" style="stroke:#181818;stroke-width:1;"/><text fill="#000000" font-family="sans-serif" font-size="13" lengthAdjust="spacing" textLength="125.7915" x="243.3252" y="347.0981">_refresh_treeview()</text></g><g class="message" data-participant-1="UI" data-participant-2="UI"><line style="stroke:#181818;stroke-width:1;" x1="236.3252" x2="278.3252" y1="394.2969" y2="394.2969"/><line style="stroke:#181818;stroke-width:1;" x1="278.3252" x2="278.3252" y1="394.2969" y2="407.2969"/><line style="stroke:#181818;stroke-width:1;" x1="237.3252" x2="278.3252" y1="407.2969" y2="407.2969"/><polygon fill="#181818" points="247.3252,403.2969,237.3252,407.2969,247.3252,411.2969,243.3252,407.2969" style="stroke:#181818;stroke-width:1;"/><text fill="#000000" font-family="sans-serif" font-size="13" lengthAdjust="spacing" textLength="93.7739" x="243.3252" y="389.231">clear_entries()</text></g><g class="message" data-participant-1="UI" data-participant-2="UI"><line style="stroke:#181818;stroke-width:1;" x1="236.3252" x2="278.3252" y1="436.4297" y2="436.4297"/><line style="stroke:#181818;stroke-width:1;" x1="278.3252" x2="278.3252" y1="436.4297" y2="449.4297"/><line style="stroke:#181818;stroke-width:1;" x1="237.3252" x2="278.3252" y1="449.4297" y2="449.4297"/><polygon fill="#181818" points="247.3252,445.4297,237.3252,449.4297,247.3252,453.4297,243.3252,449.4297" style="stroke:#181818;stroke-width:1;"/><text fill="#000000" font-family="sans-serif" font-size="13" lengthAdjust="spacing" textLength="119.3423" x="243.3252" y="431.3638">showinfo("&#1059;&#1089;&#1087;&#1077;&#1093;")</text></g><!--SRC=[TP31IWCn54NtynLXLjD5Vy25uDA5889kGvY-QGDfCYIXfJkd82YurAMuy0VQWTfIfVx2on_vCXrRjPfDShdttPn4vDvObk8pRl0jtEEIzXfdOOgBg5Cc7BjqO9DIM2zpMGhjMNesEIdBhNVwqpa7wuo-4ahs13KtcPtwAte1fN6Ip4cJZJ99uesiUqpjx8ZX4yxm5LVuJliYJ8dsWIZdf6fSXIbH9XJyYlC-U5ustRomPiWBOuTPfutiM2WvsfuXswOxYL2UuMEeOYV3JRYbI-UunbN2QEr7kpkqca2MM8Th-hAx5YzK-45S5LdhVGk9fkKRgHkOyLXOBNMV-40vY6-D5VzCnS-9Ss84N2ZLShlExs9keR3W1jnRW964SNOGoHK8oq5xAy4TsX5Dwi9aARuqxrc4cvGOTUyJ]--></g></svg>