<svg xmlns="http://www.w3.org/2000/svg" xmlns:xlink="http://www.w3.org/1999/xlink" contentStyleType="text/css" data-diagram-type="DESCRIPTION" height="420px" preserveAspectRatio="none" style="width:1093px;height:420px;background:#FFFFFF;" version="1.1" viewBox="0 0 1093 420" width="1093px" zoomAndPan="magnify"><defs/><g><!--cluster ?????????? ??????????--><g class="cluster" data-entity=".......... .........." data-source-line="2" data-uid="ent0002" id="cluster_.......... .........."><path d="M573.11,6 L780.569,6 A3.75,3.75 0 0 1 783.069,8.5 L790.069,28.2969 L790.11,28.2969 A2.5,2.5 0 0 1 792.61,30.7969 L792.61,100.8 A2.5,2.5 0 0 1 790.11,103.3 L573.11,103.3 A2.5,2.5 0 0 1 570.61,100.8 L570.61,8.5 A2.5,2.5 0 0 1 573.11,6" fill="none" style="stroke:#000000;stroke-width:1.5;"/><line style="stroke:#000000;stroke-width:1.5;" x1="570.61" x2="790.069" y1="28.2969" y2="28.2969"/><text fill="#000000" font-family="sans-serif" font-size="14" font-weight="bold" lengthAdjust="spacing" textLength="206.459" x="574.61" y="20.9951">&#1052;&#1086;&#1085;&#1086;&#1083;&#1080;&#1090;&#1085;&#1086;&#1077; &#1087;&#1088;&#1080;&#1083;&#1086;&#1078;&#1077;&#1085;&#1080;&#1077;</text></g><!--cluster ???????????--><g class="cluster" data-entity="..........." data-source-line="28" data-uid="ent0012" id="cluster_..........."><rect fill="none" height="97.3" rx="2.5" ry="2.5" style="stroke:#181818;stroke-width:1;" width="504" x="583.61" y="188.81"/><text fill="#000000" font-family="sans-serif" font-size="14" font-weight="bold" lengthAdjust="spacing" textLength="103.4551" x="783.8825" y="203.8051">&#1047;&#1072;&#1074;&#1080;&#1089;&#1080;&#1084;&#1086;&#1089;&#1090;&#1080;</text></g><!--entity GodClass--><g class="entity" data-entity="GodClass" data-source-line="3" data-uid="ent0003" id="entity_GodClass"><rect fill="#F1F1F1" height="46.2969" rx="2.5" ry="2.5" style="stroke:#181818;stroke-width:0.5;" width="87.7148" x="637.76" y="41"/><rect fill="#F1F1F1" height="10" style="stroke:#181818;stroke-width:0.5;" width="15" x="705.4748" y="46"/><rect fill="#F1F1F1" height="2" style="stroke:#181818;stroke-width:0.5;" width="4" x="703.4748" y="48"/><rect fill="#F1F1F1" height="2" style="stroke:#181818;stroke-width:0.5;" width="4" x="703.4748" y="52"/><text fill="#000000" font-family="sans-serif" font-size="14" lengthAdjust="spacing" textLength="47.7148" x="652.76" y="73.9951">MyApp</text></g><!--entity tkinter--><g class="entity" data-entity="tkinter" data-source-line="29" data-uid="ent0013" id="entity_tkinter"><rect fill="#F1F1F1" height="46.2969" rx="2.5" ry="2.5" style="stroke:#181818;stroke-width:0.5;" width="86.2178" x="599.51" y="223.81"/><rect fill="#F1F1F1" height="10" style="stroke:#181818;stroke-width:0.5;" width="15" x="665.7278" y="228.81"/><rect fill="#F1F1F1" height="2" style="stroke:#181818;stroke-width:0.5;" width="4" x="663.7278" y="230.81"/><rect fill="#F1F1F1" height="2" style="stroke:#181818;stroke-width:0.5;" width="4" x="663.7278" y="234.81"/><text fill="#000000" font-family="sans-serif" font-size="14" lengthAdjust="spacing" textLength="46.2178" x="614.51" y="256.8051">tkinter</text></g><!--entity tkcalendar--><g class="entity" data-entity="tkcalendar" data-source-line="30" data-uid="ent0014" id="entity_tkcalendar"><rect fill="#F1F1F1" height="46.2969" rx="2.5" ry="2.5" style="stroke:#181818;stroke-width:0.5;" width="114.4707" x="720.38" y="223.81"/><rect fill="#F1F1F1" height="10" style="stroke:#181818;stroke-width:0.5;" width="15" x="814.8507" y="228.81"/><rect fill="#F1F1F1" height="2" style="stroke:#181818;stroke-width:0.5;" width="4" x="812.8507" y="230.81"/><rect fill="#F1F1F1" height="2" style="stroke:#181818;stroke-width:0.5;" width="4" x="812.8507" y="234.81"/><text fill="#000000" font-family="sans-serif" font-size="14" lengthAdjust="spacing" textLength="74.4707" x="735.38" y="256.8051">tkcalendar</text></g><!--entity csv--><g class="entity" data-entity="csv" data-source-line="31" data-uid="ent0015" id="entity_csv"><rect fill="#F1F1F1" height="46.2969" rx="2.5" ry="2.5" style="stroke:#181818;stroke-width:0.5;" width="63.2764" x="869.98" y="223.81"/><rect fill="#F1F1F1" height="10" style="stroke:#181818;stroke-width:0.5;" width="15" x="913.2564" y="228.81"/><rect fill="#F1F1F1" height="2" style="stroke:#181818;stroke-width:0.5;" width="4" x="911.2564" y="230.81"/><rect fill="#F1F1F1" height="2" style="stroke:#181818;stroke-width:0.5;" width="4" x="911.2564" y="234.81"/><text fill="#000000" font-family="sans-serif" font-size="14" lengthAdjust="spacing" textLength="23.2764" x="884.98" y="256.8051">csv</text></g><!--entity datetime--><g class="entity" data-entity="datetime" data-source-line="32" data-uid="ent0016" id="entity_datetime"><rect fill="#F1F1F1" height="46.2969" rx="2.5" ry="2.5" style="stroke:#181818;stroke-width:0.5;" width="103.1982" x="968.01" y="223.81"/><rect fill="#F1F1F1" height="10" style="stroke:#181818;stroke-width:0.5;" width="15" x="1051.2082" y="228.81"/><rect fill="#F1F1F1" height="2" style="stroke:#181818;stroke-width:0.5;" width="4" x="1049.2082" y="230.81"/><rect fill="#F1F1F1" height="2" style="stroke:#181818;stroke-width:0.5;" width="4" x="1049.2082" y="234.81"/><text fill="#000000" font-family="sans-serif" font-size="14" lengthAdjust="spacing" textLength="63.1982" x="983.01" y="256.8051">datetime</text></g><!--entity Storage--><g class="entity" data-entity="Storage" data-source-line="6" data-uid="ent0004" id="entity_Storage"><rect fill="#F1F1F1" height="62.5938" rx="2.5" ry="2.5" style="stroke:#181818;stroke-width:0.5;" width="133.9326" x="67.65" y="215.67"/><rect fill="#F1F1F1" height="10" style="stroke:#181818;stroke-width:0.5;" width="15" x="181.5826" y="220.67"/><rect fill="#F1F1F1" height="2" style="stroke:#181818;stroke-width:0.5;" width="4" x="179.5826" y="222.67"/><rect fill="#F1F1F1" height="2" style="stroke:#181818;stroke-width:0.5;" width="4" x="179.5826" y="226.67"/><text fill="#000000" font-family="sans-serif" font-size="14" lengthAdjust="spacing" textLength="71.2852" x="82.65" y="248.6651">CSV &#1092;&#1072;&#1081;&#1083;</text><text fill="#000000" font-family="sans-serif" font-size="14" lengthAdjust="spacing" textLength="93.9326" x="82.65" y="264.962">(persons.csv)</text></g><g class="entity" data-entity="GMN6" data-source-line="11" data-uid="ent0007" id="entity_GMN6"><path d="M259.09,166.3 L259.09,327.6281 A0,0 0 0 0 259.09,327.6281 L564.1286,327.6281 A0,0 0 0 0 564.1286,327.6281 L564.1286,176.3 L554.1286,166.3 L535.23,166.3 L647.96,87.69 L527.23,166.3 L259.09,166.3 A0,0 0 0 0 259.09,166.3" fill="#FEFFDD" style="stroke:#181818;stroke-width:0.5;"/><path d="M554.1286,166.3 L554.1286,176.3 L564.1286,176.3 L554.1286,166.3" fill="#FEFFDD" style="stroke:#181818;stroke-width:0.5;"/><text fill="#000000" font-family="sans-serif" font-size="13" font-weight="bold" lengthAdjust="spacing" textLength="134.4624" x="265.09" y="183.3669">&#1053;&#1077;&#1090; &#1082;&#1086;&#1084;&#1087;&#1086;&#1085;&#1077;&#1085;&#1090;&#1086;&#1074;.</text><text fill="#000000" font-family="sans-serif" font-size="13" lengthAdjust="spacing" textLength="87.5723" x="265.09" y="198.4997">&#1042;&#1089;&#1105; &#1074; &#1086;&#1076;&#1085;&#1086;&#1084;:</text><text fill="#000000" font-family="sans-serif" font-size="13" lengthAdjust="spacing" textLength="85.5791" x="265.09" y="213.6325">- &#1048;&#1085;&#1090;&#1077;&#1088;&#1092;&#1077;&#1081;&#1089;</text><text fill="#000000" font-family="sans-serif" font-size="13" lengthAdjust="spacing" textLength="84.5381" x="265.09" y="228.7653">- &#1042;&#1072;&#1083;&#1080;&#1076;&#1072;&#1094;&#1080;&#1103;</text><text fill="#000000" font-family="sans-serif" font-size="13" lengthAdjust="spacing" textLength="108.7988" x="265.09" y="243.8981">- &#1041;&#1080;&#1079;&#1085;&#1077;&#1089;-&#1083;&#1086;&#1075;&#1080;&#1082;&#1072;</text><text fill="#000000" font-family="sans-serif" font-size="13" lengthAdjust="spacing" textLength="127.9878" x="265.09" y="259.031">- &#1044;&#1086;&#1089;&#1090;&#1091;&#1087; &#1082; &#1076;&#1072;&#1085;&#1085;&#1099;&#1084;</text><text fill="#000000" font-family="sans-serif" font-size="13" lengthAdjust="spacing" textLength="232.375" x="265.09" y="274.1638">- &#1056;&#1072;&#1089;&#1095;&#1105;&#1090;&#1099; (&#1074;&#1086;&#1079;&#1088;&#1072;&#1089;&#1090;, &#1089;&#1090;&#1072;&#1078;, &#1087;&#1077;&#1085;&#1089;&#1080;&#1103;)</text><text fill="#000000" font-family="sans-serif" font-size="13" lengthAdjust="spacing" textLength="4.1323" x="265.09" y="289.2966">&#160;</text><text fill="#000000" font-family="sans-serif" font-size="13" lengthAdjust="spacing" textLength="284.0386" x="265.09" y="304.4294">&#1053;&#1077;&#1074;&#1086;&#1079;&#1084;&#1086;&#1078;&#1085;&#1086; &#1079;&#1072;&#1084;&#1077;&#1085;&#1080;&#1090;&#1100; &#1093;&#1088;&#1072;&#1085;&#1080;&#1083;&#1080;&#1097;&#1077; &#1080;&#1083;&#1080; UI</text><text fill="#000000" font-family="sans-serif" font-size="13" lengthAdjust="spacing" textLength="197.8691" x="265.09" y="319.5622">&#1073;&#1077;&#1079; &#1080;&#1079;&#1084;&#1077;&#1085;&#1077;&#1085;&#1080;&#1103; &#1074;&#1089;&#1077;&#1075;&#1086; &#1082;&#1083;&#1072;&#1089;&#1089;&#1072;.</text></g><g class="entity" data-entity="GMN9" data-source-line="24" data-uid="ent0010" id="entity_GMN9"><path d="M6,388.63 L6,413.7628 A0,0 0 0 0 6,413.7628 L263.228,413.7628 A0,0 0 0 0 263.228,413.7628 L263.228,398.63 L253.228,388.63 L138.61,388.63 L134.61,278.4 L130.61,388.63 L6,388.63 A0,0 0 0 0 6,388.63" fill="#FEFFDD" style="stroke:#181818;stroke-width:0.5;"/><path d="M253.228,388.63 L253.228,398.63 L263.228,398.63 L253.228,388.63" fill="#FEFFDD" style="stroke:#181818;stroke-width:0.5;"/><text fill="#000000" font-family="sans-serif" font-size="13" lengthAdjust="spacing" textLength="236.228" x="12" y="405.6969">persons.csv &#8212; &#1078;&#1105;&#1089;&#1090;&#1082;&#1086; &#1079;&#1072;&#1096;&#1080;&#1090; &#1074; &#1082;&#1086;&#1076;</text></g><!--link GodClass to Storage--><g class="link" data-entity-1="GodClass" data-entity-2="Storage" data-source-line="8" data-uid="lnk5" id="link_GodClass_Storage"><path d="M637.42,68.37 C549.26,75.27 354.78,93.03 293.61,119.3 C241.73,141.58 196.8155,181.2302 167.2555,211.0302" fill="none" id="GodClass-to-Storage" style="stroke:#181818;stroke-width:1;"/><polygon fill="#181818" points="163.03,215.29,172.208,211.7173,166.5512,211.7402,166.5283,206.0834,163.03,215.29" style="stroke:#181818;stroke-width:1;"/><text fill="#000000" font-family="sans-serif" font-size="13" lengthAdjust="spacing" textLength="275.3931" x="294.61" y="132.3669">&#1087;&#1088;&#1103;&#1084;&#1086;&#1081; &#1076;&#1086;&#1089;&#1090;&#1091;&#1087; &#1095;&#1077;&#1088;&#1077;&#1079; open() + csv.writer</text></g><!--link GodClass to tkinter--><g class="link" data-entity-1="GodClass" data-entity-2="tkinter" data-source-line="35" data-uid="lnk17" id="link_GodClass_tkinter"><path d="M676.75,87.69 C669.26,122.43 656.2362,182.8251 648.7362,217.5651" fill="none" id="GodClass-to-tkinter" style="stroke:#181818;stroke-width:1;"/><polygon fill="#181818" points="647.47,223.43,653.2792,215.4768,648.5251,218.5426,645.4593,213.7886,647.47,223.43" style="stroke:#181818;stroke-width:1;"/></g><!--link GodClass to tkcalendar--><g class="link" data-entity-1="GodClass" data-entity-2="tkcalendar" data-source-line="36" data-uid="lnk18" id="link_GodClass_tkcalendar"><path d="M693.58,87.69 C712.02,122.43 744.3857,183.391 762.8357,218.131" fill="none" id="GodClass-to-tkcalendar" style="stroke:#181818;stroke-width:1;"/><polygon fill="#181818" points="765.65,223.43,764.9613,213.6053,763.3048,219.0141,757.8959,217.3576,765.65,223.43" style="stroke:#181818;stroke-width:1;"/></g><!--link GodClass to csv--><g class="link" data-entity-1="GodClass" data-entity-2="csv" data-source-line="37" data-uid="lnk19" id="link_GodClass_csv"><path d="M725.94,83.99 C763,101.35 815.59,129.91 852.61,166.3 C869.41,182.8 880.2267,200.7984 888.7667,217.9584" fill="none" id="GodClass-to-csv" style="stroke:#181818;stroke-width:1;"/><polygon fill="#181818" points="891.44,223.33,891.0112,213.4905,889.2123,218.8537,883.8491,217.0548,891.44,223.33" style="stroke:#181818;stroke-width:1;"/></g><!--link GodClass to datetime--><g class="link" data-entity-1="GodClass" data-entity-2="datetime" data-source-line="38" data-uid="lnk20" id="link_GodClass_datetime"><path d="M725.86,74.48 C782.01,87.87 880.05,116.59 950.61,166.3 C972.6,181.79 988.5955,200.8827 1001.2055,218.4827" fill="none" id="GodClass-to-datetime" style="stroke:#181818;stroke-width:1;"/><polygon fill="#181818" points="1004.7,223.36,1002.7098,213.7143,1001.7879,219.2955,996.2067,218.3737,1004.7,223.36" style="stroke:#181818;stroke-width:1;"/></g><!--SRC=[PLBTRX9H4Bu_Jp7Xfe251sYYYUc5ySAhHcyg5oki3IdTtUnkDCQOTF6dDJKXD6tqGXCVOKKMbh_b5UQyWa_YD-U0W2K1pldEp3VpVJDxT5y-nBSyv9mNEj5T7d362volU48bddB1SrxYTo6uxfRep_aD0HEau1ddkcjfLE0qJvqJ5rdVjr_DAIDUwdCKcU4oCYLopahqLX4TFtdpC0WQv4Jqo6yTTfmeKk-KEZuyUaRw0wSyuTbphnouOUHxKRqPlQgOuAFO3r5FgNKMrMeFrYWTc8gwPrgT41GMea-_voNf2yxGJSPZyWFNArVe7e6s_ZfinswebEV7BhtmuzW_8__bfYkYQfL_8BTBTvt1QL2lLX74rwZK9nuGiA7HFpy0NYF-PY9H7C8odkZ4mjTG2RCGdEfFCArduJwWiV3hf6QS-mrWogbzlTbIn5DHcAucDxS1Fy6Mw0lTHz0LbJ7QWiVGBMXtdyouKnxjmoaZ8P7A5UIA1iYq2SR0aQWWN59SpVJ0-ONqHw4pmvHPVvOvcoCzVImalup7HeLDiwazU8Dg6VGKukJCj9HmMbUkroAn_yuGrjCcsbe4kumZA1GjqrMB-j9ifVWlKnfkaUw9rsBefTr0QJ77LymlP3B8o5NeDcF7E-d8Bd-5lW7uO8uuOGhbgyMDJziU5gPXpqsdWqAElQ8vyzzoOZTkdxaDMUcTHTra_mzlY7PV3ESkz8_-Bm00]--></g></svg>