<svg xmlns="http://www.w3.org/2000/svg" xmlns:xlink="http://www.w3.org/1999/xlink" contentStyleType="text/css" data-diagram-type="CLASS" height="680px" preserveAspectRatio="none" style="width:808px;height:680px;background:#FFFFFF;" version="1.1" viewBox="0 0 808 680" width="808px" zoomAndPan="magnify"><defs/><g><!--cluster tk--><g class="cluster" data-entity="tk" data-source-line="38" data-uid="ent0004" id="cluster_tk"><path d="M349.35,571.44 L366.3529,571.44 A3.75,3.75 0 0 1 368.8529,573.94 L375.8529,593.7369 L424.35,593.7369 A2.5,2.5 0 0 1 426.85,596.2369 L426.85,667.94 A2.5,2.5 0 0 1 424.35,670.44 L349.35,670.44 A2.5,2.5 0 0 1 346.85,667.94 L346.85,573.94 A2.5,2.5 0 0 1 349.35,571.44" fill="none" style="stroke:#000000;stroke-width:1.5;"/><line style="stroke:#000000;stroke-width:1.5;" x1="346.85" x2="375.8529" y1="593.7369" y2="593.7369"/><text fill="#000000" font-family="sans-serif" font-size="14" font-weight="bold" lengthAdjust="spacing" textLength="16.0029" x="350.85" y="586.4351">tk</text></g><!--class Tk--><g class="entity" data-entity="Tk" data-source-line="38" data-uid="ent0003" id="entity_Tk"><rect fill="#F1F1F1" height="48" rx="2.5" ry="2.5" style="stroke:#181818;stroke-width:0.5;" width="48.6592" x="362.52" y="606.44"/><ellipse cx="377.52" cy="622.44" fill="#ADD1B2" rx="11" ry="11" style="stroke:#181818;stroke-width:1;"/><path d="M380.4888,628.0806 Q379.9106,628.3775 379.27,628.5181 Q378.6294,628.6744 377.9263,628.6744 Q375.4263,628.6744 374.0981,627.0338 Q372.7856,625.3775 372.7856,622.2525 Q372.7856,619.1275 374.0981,617.4713 Q375.4263,615.815 377.9263,615.815 Q378.6294,615.815 379.27,615.9713 Q379.9263,616.1275 380.4888,616.4244 L380.4888,619.1431 Q379.8638,618.565 379.27,618.2994 Q378.6763,618.0181 378.0513,618.0181 Q376.7075,618.0181 376.02,619.0963 Q375.3325,620.1588 375.3325,622.2525 Q375.3325,624.3463 376.02,625.4244 Q376.7075,626.4869 378.0513,626.4869 Q378.6763,626.4869 379.27,626.2213 Q379.8638,625.94 380.4888,625.3619 L380.4888,628.0806 Z " fill="#000000"/><text fill="#000000" font-family="sans-serif" font-size="14" lengthAdjust="spacing" textLength="16.6592" x="391.52" y="627.2867">Tk</text><line style="stroke:#181818;stroke-width:0.5;" x1="363.52" x2="410.1792" y1="638.44" y2="638.44"/><line style="stroke:#181818;stroke-width:0.5;" x1="363.52" x2="410.1792" y1="646.44" y2="646.44"/></g><!--class MyApp--><g class="entity" data-entity="MyApp" data-source-line="2" data-uid="ent0002" id="entity_MyApp"><rect fill="#F1F1F1" height="520.6094" rx="2.5" ry="2.5" style="stroke:#181818;stroke-width:0.5;" width="255.5918" x="149.05" y="7"/><ellipse cx="248.7385" cy="23" fill="#ADD1B2" rx="11" ry="11" style="stroke:#181818;stroke-width:1;"/><path d="M251.7072,28.6406 Q251.1291,28.9375 250.4885,29.0781 Q249.8479,29.2344 249.1447,29.2344 Q246.6447,29.2344 245.3166,27.5938 Q244.0041,25.9375 244.0041,22.8125 Q244.0041,19.6875 245.3166,18.0313 Q246.6447,16.375 249.1447,16.375 Q249.8479,16.375 250.4885,16.5313 Q251.1447,16.6875 251.7072,16.9844 L251.7072,19.7031 Q251.0822,19.125 250.4885,18.8594 Q249.8947,18.5781 249.2697,18.5781 Q247.926,18.5781 247.2385,19.6563 Q246.551,20.7188 246.551,22.8125 Q246.551,24.9063 247.2385,25.9844 Q247.926,27.0469 249.2697,27.0469 Q249.8947,27.0469 250.4885,26.7813 Q251.0822,26.5 251.7072,25.9219 L251.7072,28.6406 Z " fill="#000000"/><text fill="#000000" font-family="sans-serif" font-size="14" lengthAdjust="spacing" textLength="47.7148" x="269.2385" y="27.8467">MyApp</text><line style="stroke:#181818;stroke-width:0.5;" x1="150.05" x2="403.6418" y1="39" y2="39"/><rect fill="none" height="6" style="stroke:#C82930;stroke-width:1;" width="6" x="157.05" y="49.6484"/><text fill="#000000" font-family="sans-serif" font-size="14" lengthAdjust="spacing" textLength="139.3369" x="169.05" y="55.9951">entry_frame: Frame</text><rect fill="none" height="6" style="stroke:#C82930;stroke-width:1;" width="6" x="157.05" y="65.9453"/><text fill="#000000" font-family="sans-serif" font-size="14" lengthAdjust="spacing" textLength="92.3398" x="169.05" y="72.292">entry1: Entry</text><rect fill="none" height="6" style="stroke:#C82930;stroke-width:1;" width="6" x="157.05" y="82.2422"/><text fill="#000000" font-family="sans-serif" font-size="14" lengthAdjust="spacing" textLength="92.3398" x="169.05" y="88.5889">entry2: Entry</text><rect fill="none" height="6" style="stroke:#C82930;stroke-width:1;" width="6" x="157.05" y="98.5391"/><text fill="#000000" font-family="sans-serif" font-size="14" lengthAdjust="spacing" textLength="92.3398" x="169.05" y="104.8857">entry3: Entry</text><rect fill="none" height="6" style="stroke:#C82930;stroke-width:1;" width="6" x="157.05" y="114.8359"/><text fill="#000000" font-family="sans-serif" font-size="14" lengthAdjust="spacing" textLength="154.1094" x="169.05" y="121.1826">gender_var: StringVar</text><rect fill="none" height="6" style="stroke:#C82930;stroke-width:1;" width="6" x="157.05" y="131.1328"/><text fill="#000000" font-family="sans-serif" font-size="14" lengthAdjust="spacing" textLength="130.2588" x="169.05" y="137.4795">entry4: Combobox</text><rect fill="none" height="6" style="stroke:#C82930;stroke-width:1;" width="6" x="157.05" y="147.4297"/><text fill="#000000" font-family="sans-serif" font-size="14" lengthAdjust="spacing" textLength="125.8018" x="169.05" y="153.7764">entry5: DateEntry</text><rect fill="none" height="6" style="stroke:#C82930;stroke-width:1;" width="6" x="157.05" y="163.7266"/><text fill="#000000" font-family="sans-serif" font-size="14" lengthAdjust="spacing" textLength="125.8018" x="169.05" y="170.0732">entry6: DateEntry</text><rect fill="none" height="6" style="stroke:#C82930;stroke-width:1;" width="6" x="157.05" y="180.0234"/><text fill="#000000" font-family="sans-serif" font-size="14" lengthAdjust="spacing" textLength="148.4971" x="169.05" y="186.3701">button_frame: Frame</text><rect fill="none" height="6" style="stroke:#C82930;stroke-width:1;" width="6" x="157.05" y="196.3203"/><text fill="#000000" font-family="sans-serif" font-size="14" lengthAdjust="spacing" textLength="112.6631" x="169.05" y="202.667">btn_add: Button</text><rect fill="none" height="6" style="stroke:#C82930;stroke-width:1;" width="6" x="157.05" y="212.6172"/><text fill="#000000" font-family="sans-serif" font-size="14" lengthAdjust="spacing" textLength="113.1895" x="169.05" y="218.9639">btn_edit: Button</text><rect fill="none" height="6" style="stroke:#C82930;stroke-width:1;" width="6" x="157.05" y="228.9141"/><text fill="#000000" font-family="sans-serif" font-size="14" lengthAdjust="spacing" textLength="130.416" x="169.05" y="235.2607">btn_delete: Button</text><rect fill="none" height="6" style="stroke:#C82930;stroke-width:1;" width="6" x="157.05" y="245.2109"/><text fill="#000000" font-family="sans-serif" font-size="14" lengthAdjust="spacing" textLength="120.8457" x="169.05" y="251.5576">btn_clear: Button</text><rect fill="none" height="6" style="stroke:#C82930;stroke-width:1;" width="6" x="157.05" y="261.5078"/><text fill="#000000" font-family="sans-serif" font-size="14" lengthAdjust="spacing" textLength="130.792" x="169.05" y="267.8545">tree_frame: Frame</text><rect fill="none" height="6" style="stroke:#C82930;stroke-width:1;" width="6" x="157.05" y="277.8047"/><text fill="#000000" font-family="sans-serif" font-size="14" lengthAdjust="spacing" textLength="101.4111" x="169.05" y="284.1514">tree: Treeview</text><line style="stroke:#181818;stroke-width:0.5;" x1="150.05" x2="403.6418" y1="291.4531" y2="291.4531"/><ellipse cx="160.05" cy="305.1016" fill="#84BE84" rx="3" ry="3" style="stroke:#038048;stroke-width:1;"/><text fill="#000000" font-family="sans-serif" font-size="14" lengthAdjust="spacing" textLength="61.0654" x="169.05" y="308.4482">__init__()</text><ellipse cx="160.05" cy="321.3984" fill="#84BE84" rx="3" ry="3" style="stroke:#038048;stroke-width:1;"/><text fill="#000000" font-family="sans-serif" font-size="14" lengthAdjust="spacing" textLength="111.2002" x="169.05" y="324.7451">create_entries()</text><ellipse cx="160.05" cy="337.6953" fill="#84BE84" rx="3" ry="3" style="stroke:#038048;stroke-width:1;"/><text fill="#000000" font-family="sans-serif" font-size="14" lengthAdjust="spacing" textLength="116.1426" x="169.05" y="341.042">create_buttons()</text><ellipse cx="160.05" cy="353.9922" fill="#84BE84" rx="3" ry="3" style="stroke:#038048;stroke-width:1;"/><text fill="#000000" font-family="sans-serif" font-size="14" lengthAdjust="spacing" textLength="123.3818" x="169.05" y="357.3389">create_treeview()</text><ellipse cx="160.05" cy="370.2891" fill="#84BE84" rx="3" ry="3" style="stroke:#038048;stroke-width:1;"/><text fill="#000000" font-family="sans-serif" font-size="14" lengthAdjust="spacing" textLength="79.3789" x="169.05" y="373.6357">load_data()</text><ellipse cx="160.05" cy="386.5859" fill="#84BE84" rx="3" ry="3" style="stroke:#038048;stroke-width:1;"/><text fill="#000000" font-family="sans-serif" font-size="14" lengthAdjust="spacing" textLength="105.5879" x="169.05" y="389.9326">save_all_data()</text><ellipse cx="160.05" cy="402.8828" fill="#84BE84" rx="3" ry="3" style="stroke:#038048;stroke-width:1;"/><text fill="#000000" font-family="sans-serif" font-size="14" lengthAdjust="spacing" textLength="92.2646" x="169.05" y="406.2295">add_person()</text><ellipse cx="160.05" cy="419.1797" fill="#84BE84" rx="3" ry="3" style="stroke:#038048;stroke-width:1;"/><text fill="#000000" font-family="sans-serif" font-size="14" lengthAdjust="spacing" textLength="92.791" x="169.05" y="422.5264">edit_person()</text><ellipse cx="160.05" cy="435.4766" fill="#84BE84" rx="3" ry="3" style="stroke:#038048;stroke-width:1;"/><text fill="#000000" font-family="sans-serif" font-size="14" lengthAdjust="spacing" textLength="110.0176" x="169.05" y="438.8232">delete_person()</text><ellipse cx="160.05" cy="451.7734" fill="#84BE84" rx="3" ry="3" style="stroke:#038048;stroke-width:1;"/><text fill="#000000" font-family="sans-serif" font-size="14" lengthAdjust="spacing" textLength="100.9873" x="169.05" y="455.1201">clear_entries()</text><ellipse cx="160.05" cy="468.0703" fill="#84BE84" rx="3" ry="3" style="stroke:#038048;stroke-width:1;"/><text fill="#000000" font-family="sans-serif" font-size="14" lengthAdjust="spacing" textLength="116.833" x="169.05" y="471.417">on_select(event)</text><ellipse cx="160.05" cy="484.3672" fill="#84BE84" rx="3" ry="3" style="stroke:#038048;stroke-width:1;"/><text fill="#000000" font-family="sans-serif" font-size="14" lengthAdjust="spacing" textLength="147.5742" x="169.05" y="487.7139">selection_stat(event)</text><rect fill="#F24D5C" height="6" style="stroke:#C82930;stroke-width:1;" width="6" x="157.05" y="497.6641"/><text fill="#000000" font-family="sans-serif" font-size="14" lengthAdjust="spacing" textLength="229.5918" x="169.05" y="504.0107">validate_date(date_str: str): bool</text><rect fill="#F24D5C" height="6" style="stroke:#C82930;stroke-width:1;" width="6" x="157.05" y="513.9609"/><text fill="#000000" font-family="sans-serif" font-size="14" lengthAdjust="spacing" textLength="119.3691" x="169.05" y="520.3076">get_next_id(): int</text></g><g class="entity" data-entity="GMN6" data-source-line="41" data-uid="ent0007" id="entity_GMN6"><path d="M439.94,186.64 L439.94,263.3 L404.84,267.3 L439.94,271.3 L439.94,347.9681 A0,0 0 0 0 439.94,347.9681 L801.7647,347.9681 A0,0 0 0 0 801.7647,347.9681 L801.7647,196.64 L791.7647,186.64 L439.94,186.64 A0,0 0 0 0 439.94,186.64" fill="#FEFFDD" style="stroke:#181818;stroke-width:0.5;"/><path d="M791.7647,186.64 L791.7647,196.64 L801.7647,196.64 L791.7647,186.64" fill="#FEFFDD" style="stroke:#181818;stroke-width:0.5;"/><text fill="#000000" font-family="sans-serif" font-size="13" font-weight="bold" lengthAdjust="spacing" textLength="269.6992" x="445.94" y="203.7069">"&#1041;&#1086;&#1078;&#1077;&#1089;&#1090;&#1074;&#1077;&#1085;&#1085;&#1099;&#1081; &#1082;&#1083;&#1072;&#1089;&#1089;" (God Object)</text><text fill="#000000" font-family="sans-serif" font-size="13" lengthAdjust="spacing" textLength="88.0737" x="445.94" y="218.8397">&#1054;&#1090;&#1074;&#1077;&#1095;&#1072;&#1077;&#1090; &#1079;&#1072;:</text><text fill="#000000" font-family="sans-serif" font-size="13" lengthAdjust="spacing" textLength="261.771" x="445.94" y="233.9725">- &#1057;&#1086;&#1079;&#1076;&#1072;&#1085;&#1080;&#1077; UI (&#1087;&#1086;&#1083;&#1103;, &#1082;&#1085;&#1086;&#1087;&#1082;&#1080;, &#1090;&#1072;&#1073;&#1083;&#1080;&#1094;&#1072;)</text><text fill="#000000" font-family="sans-serif" font-size="13" lengthAdjust="spacing" textLength="292.8745" x="445.94" y="249.1053">- &#1054;&#1073;&#1088;&#1072;&#1073;&#1086;&#1090;&#1082;&#1091; &#1089;&#1086;&#1073;&#1099;&#1090;&#1080;&#1081; (&#1082;&#1083;&#1080;&#1082;, &#1074;&#1099;&#1073;&#1086;&#1088; &#1089;&#1090;&#1088;&#1086;&#1082;&#1080;)</text><text fill="#000000" font-family="sans-serif" font-size="13" lengthAdjust="spacing" textLength="300.5488" x="445.94" y="264.2381">- &#1042;&#1072;&#1083;&#1080;&#1076;&#1072;&#1094;&#1080;&#1102; &#1076;&#1072;&#1085;&#1085;&#1099;&#1093; (&#1087;&#1088;&#1086;&#1074;&#1077;&#1088;&#1082;&#1072; &#1076;&#1072;&#1090;, &#1087;&#1086;&#1083;&#1077;&#1081;)</text><text fill="#000000" font-family="sans-serif" font-size="13" lengthAdjust="spacing" textLength="210.9897" x="445.94" y="279.371">- &#1056;&#1072;&#1073;&#1086;&#1090;&#1091; &#1089; CSV (&#1095;&#1090;&#1077;&#1085;&#1080;&#1077;/&#1079;&#1072;&#1087;&#1080;&#1089;&#1100;)</text><text fill="#000000" font-family="sans-serif" font-size="13" lengthAdjust="spacing" textLength="304.4209" x="445.94" y="294.5038">- &#1056;&#1072;&#1089;&#1095;&#1105;&#1090; &#1089;&#1090;&#1072;&#1090;&#1080;&#1089;&#1090;&#1080;&#1082;&#1080; (&#1074;&#1086;&#1079;&#1088;&#1072;&#1089;&#1090;, &#1089;&#1090;&#1072;&#1078;, &#1087;&#1077;&#1085;&#1089;&#1080;&#1103;)</text><text fill="#000000" font-family="sans-serif" font-size="13" lengthAdjust="spacing" textLength="4.1323" x="445.94" y="309.6366">&#160;</text><text fill="#000000" font-family="sans-serif" font-size="13" lengthAdjust="spacing" textLength="132.7485" x="445.94" y="324.7694">&#1053;&#1072;&#1088;&#1091;&#1096;&#1072;&#1077;&#1090; &#1087;&#1088;&#1080;&#1085;&#1094;&#1080;&#1087;</text><text fill="#000000" font-family="sans-serif" font-size="13" font-weight="bold" lengthAdjust="spacing" textLength="153.791" x="582.8209" y="324.7694">Single Responsibility</text><text fill="#000000" font-family="sans-serif" font-size="13" lengthAdjust="spacing" textLength="4.1323" x="736.6119" y="324.7694">.</text><text fill="#000000" font-family="sans-serif" font-size="13" lengthAdjust="spacing" textLength="340.8247" x="445.94" y="339.9022">&#1057;&#1083;&#1086;&#1078;&#1085;&#1086; &#1090;&#1077;&#1089;&#1090;&#1080;&#1088;&#1086;&#1074;&#1072;&#1090;&#1100;, &#1088;&#1072;&#1089;&#1096;&#1080;&#1088;&#1103;&#1090;&#1100;, &#1087;&#1086;&#1076;&#1076;&#1077;&#1088;&#1078;&#1080;&#1074;&#1072;&#1090;&#1100;.</text></g><g class="entity" data-entity="GMN9" data-source-line="55" data-uid="ent0010" id="entity_GMN9"><path d="M6,587.61 L6,673.2741 A0,0 0 0 0 6,673.2741 L327.6948,673.2741 A0,0 0 0 0 327.6948,673.2741 L327.6948,597.61 L317.6948,587.61 L183.7,587.61 L197.78,527.88 L175.7,587.61 L6,587.61 A0,0 0 0 0 6,587.61" fill="#FEFFDD" style="stroke:#181818;stroke-width:0.5;"/><path d="M317.6948,587.61 L317.6948,597.61 L327.6948,597.61 L317.6948,587.61" fill="#FEFFDD" style="stroke:#181818;stroke-width:0.5;"/><text fill="#000000" font-family="sans-serif" font-size="13" font-weight="bold" lengthAdjust="spacing" textLength="241.2427" x="12" y="604.6769">&#1047;&#1072;&#1074;&#1080;&#1089;&#1080;&#1090; &#1086;&#1090; &#1074;&#1085;&#1077;&#1096;&#1085;&#1080;&#1093; &#1073;&#1080;&#1073;&#1083;&#1080;&#1086;&#1090;&#1077;&#1082;:</text><text fill="#000000" font-family="sans-serif" font-size="13" lengthAdjust="spacing" textLength="292.6714" x="12" y="619.8097">- tkinter (UI: Frame, Entry, Button, TreeView)</text><text fill="#000000" font-family="sans-serif" font-size="13" lengthAdjust="spacing" textLength="225.1387" x="12" y="634.9425">- csv (&#1095;&#1090;&#1077;&#1085;&#1080;&#1077;/&#1079;&#1072;&#1087;&#1080;&#1089;&#1100; persons.csv)</text><text fill="#000000" font-family="sans-serif" font-size="13" lengthAdjust="spacing" textLength="300.6948" x="12" y="650.0753">- datetime (&#1087;&#1072;&#1088;&#1089;&#1080;&#1085;&#1075; &#1080; &#1092;&#1086;&#1088;&#1084;&#1072;&#1090;&#1080;&#1088;&#1086;&#1074;&#1072;&#1085;&#1080;&#1077; &#1076;&#1072;&#1090;)</text><text fill="#000000" font-family="sans-serif" font-size="13" lengthAdjust="spacing" textLength="214.4238" x="12" y="665.2081">- tkcalendar (&#1074;&#1080;&#1076;&#1078;&#1077;&#1090; DateEntry)</text></g><!--link MyApp to Tk--><g class="link" data-entity-1="MyApp" data-entity-2="Tk" data-source-line="38" data-uid="lnk5" id="link_MyApp_Tk"><path codeLine="38" d="M355.91,527.88 C365.68,559.96 368.9405,570.6725 374.5505,589.0725" fill="none" id="MyApp-to-Tk" style="stroke:#181818;stroke-width:1;"/><polygon fill="none" points="379.8,606.29,380.2897,587.3227,368.8114,590.8223,379.8,606.29" style="stroke:#181818;stroke-width:1;"/></g><!--SRC=[VLNTRjD85BxtKnnnKoSaNIqiUs49961XnGKWRKjlBISUYhUkNTb3e0Aaf8KjKYigAgIzMTZb3KneYYaqVOMPLzWduJiphadQY5muyJTdpldETtuoHvVvG-gT7gWZDLP3y_nCwb1zKOKUw07zttz3Qb-D650ZlK5gJxrN0tlJwSP1djFjzQjhQ_J48NpcgDrka_eNVhxeNLAbEj8RkDZNp-7aCm8LR65isoGIcQtxzxDWLNXqaxyc3txsw0P_Js8NPc0Nfx5baOGYytj1vj62pA9aUId89kr_yUXwkjf9E-dZIVYIHxy5Kfnn_-jPlFDGoZIPHRmZ4py8Gu-k6PC9L8IHd0678XPIp3Zene8pcC9b9iIig8nxj8XdBnAF3EZxa_NuXsk7ckphxLh-yx29aaZwljkeW6ucaAdFQKSYFmtRhC_0iWfRut4QX7uOoA16yg0d_22Efr7evA-9B4-J6cAHJcDMeTEeaUSCKnGbXtbNkgA7ipg-mI8-bS7KMPjwGHo5d0S_NFChbn0UZuP7dJIDwxwIVY8UIpyANPn4YNIUESuSgRSyAnYG4GQ5XwZ069LgH6gCULbSSUnyjDjFhv1ScGVW9AaKb4NB3oIbz-ty84YpUKwzXeS356k0SWtXyGZpipqrakV8_JqDwMxdJwJKQ3Pn4GDihFNMoP1-KeNdC6aCwnXl-pMfUxV8LSTsF5libaV-6DzbY-2bK1yGgDH_gQ9X7RnJ7tJVu4X77UfDGh9ZWDjuBK7DDTnATGXtGv1bmpvn1hWtPi-LfpruOKEGWVzIlwAA5rBKBvYMkS29z76jCCTw0suDNzuVbQV_JlWODdHzOObSlSMBncRv4mk0MoLOx7o_WxSj_Hhw67aBvcz-bKmIyOUi5IVBQAkoKWU603mZxrBliZlMdAlUrvlwvOdcp9xN7L9JnoZc0ZPFBEWFaQzXQg9E54TolTcSvyllaGuN6kAJsO-6HfK-YEaTXBT4NZAkTorcbDZdXOpJ0mIghESTB3tYjkAEhDRw7joFSB_gHfPao1dZzIl4Co7jWcVGziGE1DX4ib_fpjt56oWeJ2sxCMLekC3aPBU_wU9EYgMmEjt6wk_leLWPdWFpvrAnGR5HljAsccchaJhqJ2jZbwrWiaH6xhrRrP9hsVNUgdPXooow9MmSMzbktlj1zSdkZNmUPjQUHrn6gyBC0TUG1JbI7o43uLyApOkSYybwd2Xesh5HiUm6CJGFCjCttDG7fWtgluf6NP9l]--></g></svg>